<?xml version="1.0" encoding="UTF-8"?>
<svg xmlns="http://www.w3.org/2000/svg" xmlns:xlink="http://www.w3.org/1999/xlink" width="165pt" height="244pt" viewBox="0 0 165 244" version="1.1">
  <g id="surface1">
    <path style=" stroke:none;fill-rule:evenodd;fill:RGB(255,255,255);fill-opacity:1;" d="M 31.371094 11.574219 L 31.3125 29.855469 L 38.621094 27.335938 L 38.640625 8.734375 L 31.371094 11.574219 " />
    <path style=" stroke:none;fill-rule:evenodd;fill:RGB(255,255,255);fill-opacity:1;" d="M 22.800781 14.800781 L 22.757813 32.910156 C 25.539063 32.972656 27.289063 30.941406 29.402344 30.765625 L 29.421875 12.378906 L 22.800781 14.800781 " />
    <path style=" stroke:none;fill-rule:evenodd;fill:RGB(255,255,255);fill-opacity:1;" d="M 14.4375 18.007813 L 14.386719 36.527344 L 21.042969 33.769531 L 21.054688 15.367188 L 14.4375 18.007813 " />
    <path style=" stroke:none;fill-rule:evenodd;fill:RGB(255,255,255);fill-opacity:1;" d="M 31.371094 30.878906 L 31.316406 49.796875 L 38.621094 47.703125 L 38.640625 28.246094 L 31.371094 30.878906 " />
    <path style=" stroke:none;fill-rule:evenodd;fill:RGB(255,255,255);fill-opacity:1;" d="M 22.800781 34.097656 L 22.742188 52.363281 L 29.402344 50.492188 L 29.421875 31.671875 L 22.800781 34.097656 " />
    <path style=" stroke:none;fill-rule:evenodd;fill:RGB(255,255,255);fill-opacity:1;" d="M 14.4375 37.097656 L 14.386719 55.171875 L 21.042969 53.0625 L 21.058594 34.675781 L 14.4375 37.097656 " />
    <path style=" stroke:none;fill-rule:evenodd;fill:RGB(255,255,255);fill-opacity:1;" d="M 31.367188 50.824219 L 31.320313 69.296875 L 38.621094 67.640625 L 38.636719 48.613281 L 31.367188 50.824219 " />
    <path style=" stroke:none;fill-rule:evenodd;fill:RGB(255,255,255);fill-opacity:1;" d="M 22.792969 53.605469 L 22.738281 71.429688 L 29.402344 69.785156 L 29.421875 51.617188 L 22.792969 53.605469 " />
    <path style=" stroke:none;fill-rule:evenodd;fill:RGB(255,255,255);fill-opacity:1;" d="M 14.425781 56.152344 L 14.378906 73.574219 L 21.042969 71.929688 L 21.054688 53.953125 L 14.425781 56.152344 " />
    <path style=" stroke:none;fill-rule:evenodd;fill:RGB(255,255,255);fill-opacity:1;" d="M 31.363281 70.34375 L 31.316406 88.785156 L 38.621094 87.363281 L 38.636719 68.558594 L 31.363281 70.34375 " />
    <path style=" stroke:none;fill-rule:evenodd;fill:RGB(255,255,255);fill-opacity:1;" d="M 22.785156 72.472656 L 22.742188 90.496094 L 29.402344 89.078125 L 29.421875 70.929688 L 22.785156 72.472656 " />
    <path style=" stroke:none;fill-rule:evenodd;fill:RGB(255,255,255);fill-opacity:1;" d="M 14.425781 74.609375 L 14.378906 92.4375 L 21.042969 91.007813 L 21.0625 72.855469 L 14.425781 74.609375 " />
    <path style=" stroke:none;fill-rule:evenodd;fill:RGB(255,255,255);fill-opacity:1;" d="M 31.355469 89.832031 L 31.351563 108.296875 L 38.621094 107.304688 L 38.640625 88.304688 L 31.355469 89.832031 " />
    <path style=" stroke:none;fill-rule:evenodd;fill:RGB(255,255,255);fill-opacity:1;" d="M 69.921875 107.089844 C 71.984375 108.179688 74.339844 108.160156 77.382813 108.195313 L 80.214844 111.804688 C 77.957031 112.886719 76.933594 112.527344 75.066406 111.589844 C 73.917969 111.011719 71.179688 109.738281 69.921875 109.445313 Z M 61.347656 122.523438 L 61.535156 122.691406 L 85.574219 109.875 L 85.574219 109.445313 C 81.289063 109.445313 73.5625 106.015625 69.28125 106.015625 C 67.988281 106.015625 62.875 120.765625 61.347656 122.523438 " />
    <path style=" stroke:none;fill-rule:evenodd;fill:RGB(255,255,255);fill-opacity:1;" d="M 22.777344 91.535156 L 22.738281 109.535156 L 29.1875 108.589844 L 29.207031 90.242188 L 22.777344 91.535156 " />
    <path style=" stroke:none;fill-rule:evenodd;fill:RGB(255,255,255);fill-opacity:1;" d="M 14.421875 93.480469 L 14.386719 110.640625 L 21.042969 109.875 L 21.058594 91.9375 L 14.421875 93.480469 " />
    <path style=" stroke:none;fill-rule:evenodd;fill:RGB(255,255,255);fill-opacity:1;" d="M 80.214844 115.019531 C 81.558594 114.308594 82.554688 113.519531 83.855469 113.519531 L 85.359375 113.519531 C 85.582031 114.488281 86.496094 115.53125 86.929688 116.449219 C 87.46875 117.597656 87.710938 119.042969 88.144531 119.953125 C 86.828125 119.953125 86.039063 120.25 85.089844 120.203125 C 83.613281 120.132813 82.820313 121.386719 82.582031 120.175781 C 82.167969 118.085938 81.214844 116.515625 80.214844 115.019531 Z M 118.160156 117.378906 C 118.769531 117.378906 118.550781 117.3125 118.800781 116.949219 C 115.84375 116.949219 106.523438 114.207031 102.953125 113.503906 C 99.46875 112.816406 90.238281 110.089844 87.289063 110.089844 C 87.152344 110.089844 63.070313 122.628906 62.203125 123.382813 L 113.257813 117.851563 L 113.226563 117.574219 L 102.496094 118.542969 L 101.628906 113.738281 L 116.847656 116.84375 L 116.871094 117.378906 L 118.160156 117.378906 " />
    <path style=" stroke:none;fill-rule:evenodd;fill:RGB(255,255,255);fill-opacity:1;" d="M 56.210938 109.121094 L 56.261719 113.523438 C 55.394531 113.40625 53.773438 110.304688 53.191406 109.34375 Z M 58.558594 109.875 L 58.558594 113.734375 C 58.558594 114.472656 58.863281 114.84375 59.203125 115.234375 C 59.703125 113.089844 59.859375 113.242188 59.84375 110.304688 C 59.828125 106.304688 60.875 109.097656 63.277344 107.945313 C 63.277344 110.652344 63.601563 113.53125 62.847656 115.019531 C 62.226563 116.246094 60.570313 119.324219 60.273438 120.59375 L 59.714844 120.546875 L 56.84375 115.878906 C 56.996094 115.574219 57.058594 115.523438 57.058594 115.019531 L 57.058594 108.804688 L 58.773438 108.804688 C 58.660156 109.285156 58.558594 109.296875 58.558594 109.875 Z M 67.609375 106.25 L 51.488281 108.617188 L 60.183594 123.34375 Z M 67.609375 106.25 " />
    <path style=" stroke:none;fill-rule:evenodd;fill:RGB(255,255,255);fill-opacity:1;" d="M 40.78125 114.429688 L 40.765625 117.164063 L 38.4375 116.421875 L 38.4375 115.121094 Z M 49.984375 111.804688 C 49.984375 111.390625 49.917969 111.421875 49.769531 111.160156 C 51.101563 111.308594 54.613281 118.617188 55.773438 119.953125 L 55.511719 121.230469 L 50.015625 119.429688 Z M 58.785156 123.128906 L 50.589844 109.039063 L 35.984375 116.089844 Z M 58.785156 123.128906 " />
    <path style=" stroke:none;fill-rule:evenodd;fill:RGB(255,255,255);fill-opacity:1;" d="M 21.03125 127.152344 L 21.089844 124.347656 L 24.257813 122.953125 L 24.25 126.742188 Z M 29.175781 126.078125 L 29.230469 120.0625 L 32.191406 118.878906 L 32.179688 125.660156 Z M 38.910156 118.496094 C 39.441406 118.742188 40.765625 118.933594 40.765625 119.738281 L 40.765625 124.667969 L 40.335938 124.667969 L 40.335938 125.3125 L 40.09375 124.675781 L 38.398438 125.054688 L 38.40625 119.308594 Z M 52.109375 122.160156 L 34.957031 116.800781 L 11.542969 128.828125 C 19.089844 128.332031 27.292969 126.789063 34.761719 126.382813 C 38.523438 126.179688 42.644531 125.378906 46.34375 125.101563 C 48.121094 124.964844 57.113281 124.402344 57.703125 123.597656 L 54.929688 122.894531 L 54.914063 123.382813 L 48.898438 124.140625 L 48.894531 121.300781 L 52.109375 122.160156 " />
    <path style=" stroke:none;fill-rule:evenodd;fill:RGB(255,255,255);fill-opacity:1;" d="M 49.128906 129.171875 L 49.984375 128.097656 L 48.054688 128.097656 C 48.152344 129.273438 48.238281 128.742188 49.128906 129.171875 " />
    <path style=" stroke:none;fill-rule:evenodd;fill:RGB(255,255,255);fill-opacity:1;" d="M 55.601563 131.945313 L 56.628906 131.957031 C 56.6875 131.253906 57.039063 130.886719 56.203125 130.886719 L 55.335938 130.886719 L 55.601563 131.945313 " />
    <path style=" stroke:none;fill-rule:evenodd;fill:RGB(255,255,255);fill-opacity:1;" d="M 58.773438 131.101563 C 58.804688 131.070313 58.867188 131.191406 58.863281 131.1875 C 58.859375 131.1875 58.742188 131.128906 58.773438 131.101563 Z M 58.773438 131.101563 L 57.703125 131.101563 L 57.703125 132.386719 C 58.277344 132.523438 58.105469 132.601563 58.558594 132.601563 C 59.050781 132.601563 58.808594 132.527344 59.511719 132.339844 L 58.976563 131.277344 L 59.890625 131.089844 L 59.632813 130.027344 L 58.773438 130.027344 L 58.773438 131.101563 " />
    <path style=" stroke:none;fill-rule:evenodd;fill:RGB(255,255,255);fill-opacity:1;" d="M 61.777344 132.601563 C 62.324219 132.601563 62.617188 131.777344 62.632813 131.101563 C 62.152344 130.988281 62.140625 130.886719 61.5625 130.886719 L 60.703125 130.886719 C 60.753906 131.464844 61.484375 132.601563 61.777344 132.601563 " />
    <path style=" stroke:none;fill-rule:evenodd;fill:RGB(255,255,255);fill-opacity:1;" d="M 63.0625 130.671875 L 63.0625 131.742188 L 63.074219 132.566406 L 63.492188 132.8125 C 64.300781 132.386719 64.050781 132.507813 64.5625 131.746094 L 63.664063 131.296875 L 63.917969 130.671875 C 63.476563 129.753906 64.058594 129.863281 63.0625 129.597656 L 63.0625 130.671875 " />
    <path style=" stroke:none;fill-rule:evenodd;fill:RGB(255,255,255);fill-opacity:1;" d="M 64.964844 132.804688 L 65.773438 132.984375 L 66.289063 132.113281 L 65.230469 131.964844 L 64.964844 132.804688 " />
    <path style=" stroke:none;fill-rule:evenodd;fill:RGB(255,255,255);fill-opacity:1;" d="M 66.492188 134.527344 L 66.277344 133.457031 L 65.421875 133.457031 C 65.445313 134.515625 65.433594 134.507813 66.492188 134.527344 " />
    <path style=" stroke:none;fill-rule:evenodd;fill:RGB(255,255,255);fill-opacity:1;" d="M 67.136719 134.101563 C 67.136719 134.515625 67.519531 134.957031 67.777344 134.957031 C 68.492188 134.957031 68.40625 134.574219 68.421875 133.886719 C 67.847656 133.75 68.019531 133.671875 67.5625 133.671875 C 67.371094 133.671875 67.136719 133.910156 67.136719 134.101563 " />
    <path style=" stroke:none;fill-rule:evenodd;fill:RGB(255,255,255);fill-opacity:1;" d="M 52.601563 144.808594 C 53.132813 144.957031 52.960938 145.035156 53.414063 145.035156 C 53.765625 145.035156 54.058594 144.90625 54.058594 144.605469 C 54.058594 144.105469 53.703125 143.746094 53.199219 143.746094 L 52.335938 143.75 L 52.601563 144.808594 " />
    <path style=" stroke:none;fill-rule:evenodd;fill:RGB(255,255,255);fill-opacity:1;" d="M 52.773438 146.320313 C 52.773438 146.824219 53.128906 147.179688 53.628906 147.179688 L 53.84375 147.179688 C 54.335938 147.179688 54.488281 147.03125 54.488281 146.535156 C 54.488281 146.03125 54.132813 145.675781 53.628906 145.675781 L 52.773438 145.675781 L 52.773438 146.320313 " />
    <path style=" stroke:none;fill-rule:evenodd;fill:RGB(255,255,255);fill-opacity:1;" d="M 60.703125 150.179688 C 61.195313 150.179688 60.953125 150.105469 61.5625 149.964844 C 61.480469 149.015625 60.585938 148.875 59.847656 148.679688 C 59.894531 149.253906 60.207031 150.179688 60.703125 150.179688 " />
    <path style=" stroke:none;fill-rule:evenodd;fill:RGB(255,255,255);fill-opacity:1;" d="M 63.433594 150.628906 L 64.347656 150.394531 C 64.167969 149.722656 63.851563 149.195313 62.964844 149.136719 L 63.433594 150.628906 " />
    <path style=" stroke:none;fill-rule:evenodd;fill:RGB(255,255,255);fill-opacity:1;" d="M 71.421875 154.46875 C 72.171875 154.269531 72.207031 154.269531 72.273438 153.414063 L 70.78125 152.964844 C 70.886719 154.246094 71.121094 153.335938 71.421875 154.46875 " />
    <path style=" stroke:none;fill-rule:evenodd;fill:RGB(255,255,255);fill-opacity:1;" d="M 77.210938 156.398438 L 77.808594 156.386719 L 78.078125 155.289063 L 77.210938 155.109375 L 77.210938 156.398438 " />
    <path style=" stroke:none;fill-rule:evenodd;fill:RGB(255,255,255);fill-opacity:1;" d="M 55.773438 238.507813 C 55.667969 238.285156 57.085938 234.292969 57.367188 233.027344 C 57.742188 231.328125 58.132813 227.9375 58.132813 226.074219 C 59.457031 226.957031 63.414063 229.027344 65.421875 229.074219 L 65.421875 237.648438 C 64.761719 237.789063 61.714844 237.835938 60.441406 238.03125 C 59.164063 238.222656 58.859375 238.023438 57.945313 238.089844 C 57.148438 238.144531 56.078125 238.648438 55.773438 238.507813 Z M 75.066406 231.644531 L 75.066406 230.359375 L 78.71875 230.421875 L 83 229.714844 C 83 233.640625 83.984375 238.921875 85.582031 241.367188 L 73.351563 243.007813 C 73.339844 242.984375 74.285156 238.894531 74.449219 237.671875 C 74.703125 235.769531 75.066406 233.25 75.066406 231.644531 Z M 117.515625 235.933594 C 117.253906 235.785156 117.285156 235.71875 116.871094 235.71875 L 108.726563 235.71875 C 107.90625 235.71875 108.648438 235.652344 108.082031 235.933594 L 108.082031 235.289063 C 109.597656 235.164063 111.597656 233.453125 112.144531 232.359375 L 114.730469 232.71875 C 115.726563 232.878906 122.253906 231.515625 122.875 231.21875 C 122.757813 232.617188 118.402344 234.613281 117.515625 235.933594 Z M 111.738281 231.96875 C 111.253906 230.855469 111.667969 230.574219 112.585938 230.574219 L 119.015625 230.574219 L 119.003906 231.121094 Z M 92.433594 228.429688 L 96.078125 228.214844 L 102.292969 228.214844 C 102.292969 230.175781 104.234375 234.613281 105.511719 235.074219 C 105.316406 235.476563 104.953125 238.71875 104.886719 239.382813 C 104.636719 241.804688 104.710938 240.941406 101.890625 241.316406 C 100.453125 241.507813 94.15625 242.671875 93.40625 242.355469 L 93.71875 238.71875 C 93.875 237.210938 92.914063 229.433594 92.433594 228.429688 Z M 93.289063 227.398438 L 93.289063 226.929688 C 95.234375 226.929688 98.683594 224.980469 99.980469 224.128906 L 101.007813 227.339844 Z M 38.410156 227.21875 C 39.308594 225.800781 40.164063 224.636719 41.066406 223.15625 C 42.300781 221.136719 42.257813 220.15625 43.125 218.355469 C 44.90625 219.546875 46.523438 222.035156 49.128906 222.640625 L 49.125 226.875 Z M 111.5 222.570313 C 111.714844 220.804688 117.078125 219.855469 118.800781 219.855469 L 126.519531 219.855469 C 130.660156 219.855469 129.757813 220.863281 132.175781 222.492188 L 130.816406 224.425781 L 123.945313 225 L 119.230469 225 C 117.269531 225 115.828125 224.925781 114.734375 223.183594 L 119.445313 223.5 L 120.542969 223.664063 L 126.734375 222.640625 C 126.269531 222.238281 122.96875 221.570313 122.019531 221.570313 L 118.140625 221.453125 Z M 135.523438 220.496094 C 135.203125 219.292969 132.976563 218.171875 131.449219 218.140625 L 131.457031 217.566406 L 138.953125 217.066406 C 138.441406 217.835938 136.515625 220.414063 135.523438 220.496094 Z M 109.175781 217.570313 L 110.464844 214.578125 L 112.15625 214.066406 L 112.109375 216.699219 Z M 112.15625 174.835938 L 113.441406 174.835938 L 113.503906 213.519531 L 114.300781 212.78125 C 115.140625 213.34375 115.433594 213.59375 116.074219 214.433594 C 117.171875 215.871094 116.519531 215.882813 117.082031 217.039063 L 116.445313 217.28125 C 119.695313 217.28125 129.242188 217.085938 129.535156 219.542969 L 121.375 218.570313 C 119.636719 218.34375 114.710938 219.328125 113.210938 219.625 C 110.363281 220.183594 108.40625 220.835938 107.226563 223.070313 C 108.726563 225.902344 115.589844 226.714844 120.089844 226.714844 L 122.445313 226.714844 C 124.132813 226.714844 128.4375 226.414063 129.660156 225.996094 C 131.277344 225.441406 134.023438 224.308594 134.023438 222.425781 C 134.023438 220.402344 131.398438 220.703125 131.226563 219.304688 L 132.949219 219.425781 C 134.394531 220.394531 134.660156 220.585938 135.796875 221.941406 C 137.101563 223.496094 136.414063 224.308594 136.382813 225.855469 C 135.644531 226.054688 134.90625 227.167969 133.820313 227.796875 C 132.894531 228.332031 131.847656 228.8125 130.640625 229.121094 C 127.851563 229.832031 126.128906 230.144531 123.089844 230.144531 L 120.089844 230.144531 C 116.976563 230.144531 113.425781 229.746094 110.3125 228.988281 C 108.914063 228.648438 107.488281 227.980469 106.492188 227.230469 C 104.371094 225.632813 105.203125 225.761719 103.796875 224.144531 C 105.015625 221.601563 104.324219 221.101563 107.152344 219.566406 C 108.878906 218.632813 110.933594 217.710938 113.441406 217.710938 C 113.296875 217.449219 113.226563 217.480469 113.226563 217.066406 L 113.226563 213.421875 L 112.15625 213.421875 Z M 116.226563 217.25 L 116.222656 217.019531 L 113.441406 217.28125 L 113.449219 217.546875 Z M 5.605469 209.992188 C 5.796875 208.261719 9.722656 207.636719 11.179688 207.636719 L 16.753906 207.636719 C 19.292969 207.636719 19.769531 208.089844 20.925781 209.871094 L 19.316406 211.359375 L 13.753906 211.707031 L 13.316406 211.816406 L 9.417969 211.554688 L 7.953125 210.074219 L 10.539063 210.421875 L 12.273438 210.535156 L 16.582031 209.820313 L 16.539063 209.5625 C 14.515625 209.5625 13.191406 208.765625 11.132813 209.085938 C 9.300781 209.371094 6.960938 209.34375 5.605469 209.992188 Z M 27.257813 208.492188 C 27.9375 208.039063 29.984375 204.847656 30.261719 204.847656 C 31.046875 204.847656 33.976563 209.535156 34.976563 210.207031 C 34.832031 210.46875 34.761719 210.4375 34.761719 210.851563 L 34.761719 211.921875 L 27.472656 211.921875 L 27.472656 209.136719 C 27.472656 208.316406 27.539063 209.058594 27.257813 208.492188 Z M 4.535156 210.421875 C 4.535156 212.855469 24.042969 215.066406 24.042969 209.351563 C 24.042969 207.964844 22.253906 208.273438 22.105469 207.078125 L 23.613281 207.207031 C 25.050781 209.351563 25.972656 208.3125 25.972656 212.136719 C 24.972656 212.808594 25.609375 212.996094 24.121094 213.714844 C 23.402344 214.058594 22.425781 214.492188 21.714844 214.738281 C 19.597656 215.476563 18.128906 215.566406 15.898438 215.566406 L 12.46875 215.566406 C 10.539063 215.566406 7.320313 215.304688 5.457031 214.429688 C 2.941406 213.25 1.960938 212.707031 1.960938 209.777344 C 3.996094 206.738281 7.332031 205.707031 11.609375 205.707031 L 15.46875 205.707031 C 16.726563 205.707031 20.644531 205.953125 20.828125 207.636719 C 17.675781 206.121094 4.535156 206.460938 4.535156 210.421875 Z M 120.515625 202.277344 L 130.378906 202.277344 L 130.378906 216.640625 L 126.519531 216.640625 C 126.519531 211.394531 122.480469 205.988281 120.515625 202.277344 Z M 131.664063 202.0625 L 133.164063 202.0625 C 135.648438 203.722656 136.558594 205.441406 137.695313 208.464844 C 138.199219 209.808594 138.515625 210.984375 138.824219 212.695313 C 139.160156 214.535156 140.078125 216.429688 138.109375 216.433594 C 136.207031 216.441406 134.851563 216.542969 132.9375 216.636719 C 131.664063 216.703125 131.660156 217.179688 131.652344 215.578125 C 131.652344 214.648438 131.664063 213.710938 131.664063 212.78125 C 131.664063 211.316406 131.683594 202.105469 131.664063 202.0625 Z M 21.660156 206.347656 L 20.652344 205.273438 L 20.417969 202.507813 L 21.742188 201.414063 Z M 129.949219 200.132813 L 129.949219 201.417969 L 121.03125 201.460938 L 124.679688 194.039063 L 130.164063 199.488281 C 130.019531 199.75 129.949219 199.71875 129.949219 200.132813 Z M 147.53125 202.703125 L 137.136719 202.753906 L 138.953125 198.203125 L 150.746094 198.203125 C 149.710938 200.15625 149.390625 201.457031 147.53125 202.703125 Z M 21.898438 198.632813 C 22.046875 198.367188 22.113281 198.402344 22.113281 197.988281 L 22.113281 195.199219 L 24.902344 195.199219 C 24.367188 195.996094 22.90625 198.519531 21.898438 198.632813 Z M 61.5625 186.410156 C 66.769531 186.410156 72.339844 184.085938 75.414063 181.828125 C 77.867188 180.019531 82.410156 174.347656 83.855469 171.617188 C 86.992188 171.617188 86.949219 170.019531 88.183594 169.976563 L 99.292969 196.058594 C 98.582031 196.53125 97.332031 198.34375 96.117188 199.3125 C 94.984375 200.210938 93.367188 201.09375 91.980469 201.605469 C 88.265625 202.980469 85.648438 203.347656 81.285156 203.347656 L 78.496094 203.347656 C 73.382813 203.347656 67.554688 201.804688 64.167969 199.238281 C 59.753906 195.894531 58.84375 192.074219 61.5625 186.410156 Z M 21.683594 190.699219 L 24.6875 194.558594 L 21.898438 194.558594 L 21.898438 191.34375 C 21.898438 190.523438 21.964844 191.265625 21.683594 190.699219 Z M 20.398438 190.699219 L 20.398438 194.558594 L 14.824219 194.558594 C 14.003906 194.558594 14.746094 194.492188 14.183594 194.773438 C 14.316406 193.148438 18.65625 191.710938 19.328125 189.199219 L 19.875 189.273438 L 20.613281 190.054688 C 20.46875 190.316406 20.398438 190.285156 20.398438 190.699219 Z M 132.523438 187.054688 L 132.523438 184.695313 L 142.597656 184.695313 C 143.761719 184.695313 146.921875 189.269531 147.65625 190.359375 C 149.414063 192.964844 149.957031 194.640625 151.386719 197.34375 L 139.167969 197.34375 C 138.949219 194.710938 132.523438 187.210938 132.523438 187.054688 Z M 143.242188 183.625 L 132.523438 183.625 L 132.523438 175.90625 C 134.753906 177.085938 136.601563 178.492188 138.597656 179.480469 C 139.757813 180.050781 140.738281 180.46875 141.996094 180.796875 C 144.628906 181.488281 143.242188 180.925781 143.242188 183.625 Z M 12.679688 194.984375 L 20.183594 194.984375 L 20.183594 201.632813 C 20.183594 202.664063 19.941406 203.839844 19.554688 205.09375 C 19.257813 206.058594 18.105469 205.054688 16.113281 205.0625 C 14.023438 205.066406 9.777344 204.722656 8.179688 205.492188 L 8.179688 174.191406 L 16.207031 174.21875 L 17.183594 177.835938 C 15.65625 178.242188 11.769531 183.730469 10.964844 185.335938 C 10.125 187.011719 9.367188 188.394531 10.074219 190.519531 C 10.46875 191.710938 11.410156 194.984375 12.679688 194.984375 Z M 146.457031 173.546875 L 156.535156 174.40625 L 157.390625 174.40625 L 157.390625 175.691406 C 157.390625 176.449219 156.917969 180.421875 156.285156 180.710938 C 155.796875 180.9375 150.9375 180.46875 150.105469 180.40625 C 141.734375 179.78125 146.457031 181.761719 146.457031 173.546875 Z M 5.820313 163.042969 L 7.535156 163.042969 L 7.535156 173.117188 L 5.820313 173.117188 Z M 10.105469 172.957031 C 10.203125 172.273438 12.507813 171.421875 13.519531 169.554688 L 15.253906 169.902344 L 15.253906 170.546875 C 15.253906 171.339844 15.636719 172.359375 15.898438 172.882813 Z M 35.800781 169.082031 L 37.378906 167.566406 L 37.523438 167.761719 L 37.472656 166.554688 L 36.945313 166.054688 L 37.152344 165.160156 L 36.691406 164.542969 C 36.691406 158.707031 37.480469 155.878906 39.992188 151.765625 C 42.285156 148.011719 44.710938 145.703125 48.269531 143.320313 C 49.628906 146.152344 49.5 147.105469 52.089844 149.148438 C 53.335938 150.132813 56.519531 152.378906 58.132813 152.753906 C 57.984375 154.492188 52.984375 157.34375 52.984375 161.113281 L 52.976563 161.6875 L 49.738281 162.183594 L 49.824219 157.257813 L 49.558594 157.253906 L 48.914063 161.96875 L 47.199219 161.96875 L 47.144531 161.328125 L 47.054688 160.234375 L 47.625 155.96875 C 47.199219 156.460938 46.125 160.453125 46.125 161.328125 L 46.113281 162.332031 L 43.753906 162.757813 L 43.488281 162.78125 L 44.839844 155.539063 C 43.925781 156.207031 42.695313 161.273438 42.695313 163.042969 L 41.738281 163.042969 C 41.765625 160.21875 42.125 157.671875 42.910156 154.894531 C 41.425781 156.609375 40.808594 160.433594 40.847656 163.015625 L 37.140625 165.070313 L 40.765625 164.328125 L 40.765625 166.6875 L 38.621094 166.6875 C 39.941406 167.601563 40.515625 166.289063 41.074219 167.878906 C 41.511719 169.128906 41.515625 170.113281 42.480469 170.761719 L 42.46875 168.460938 L 43.367188 168.710938 L 44.425781 170.859375 L 44.671875 170.753906 L 44.410156 169.261719 L 46.839844 169.34375 L 47.839844 170.761719 L 47.839844 169.046875 L 49.554688 169.046875 L 49.554688 169.902344 C 49.554688 171.226563 51.039063 176.671875 51.699219 178.050781 L 49.128906 178.050781 L 49.136719 178.164063 L 54.488281 178.691406 L 54.46875 179.238281 L 50.886719 179.953125 L 49.996094 178.730469 L 48.511719 179.128906 L 48.269531 179.980469 L 45.902344 180.078125 L 44.410156 179.765625 L 45.878906 179.738281 L 46.34375 179.121094 L 45.886719 178.207031 L 44.839844 178.691406 L 44.84375 178.289063 L 43.347656 178.53125 L 43.273438 178.207031 L 41.59375 178.71875 L 42.023438 179.429688 L 40.492188 178.816406 L 41.308594 178.335938 L 39.859375 177.105469 L 38.011719 176.378906 L 37.164063 176.933594 L 36.90625 176.488281 L 36.484375 174.984375 L 36.171875 174.992188 L 35.699219 175.808594 L 34.976563 174.835938 L 35.835938 174.835938 C 35.6875 174.574219 35.621094 174.605469 35.621094 174.191406 L 35.574219 173.621094 L 34.953125 173.089844 L 34.367188 173.535156 L 34.121094 173.117188 C 34.253906 174.714844 35.285156 176.113281 36.34375 176.894531 C 38.628906 178.585938 37.726563 177.664063 38.753906 180.707031 C 39.332031 182.421875 42.230469 187.527344 43.339844 188.339844 C 43.574219 187.464844 46.328125 183.480469 47.199219 183.410156 C 46.535156 184.660156 43.769531 189.796875 43.769531 191.128906 C 43.769531 193.488281 45.539063 196.222656 47.839844 196.273438 C 48.039063 195.421875 50.117188 191.871094 50.695313 190.765625 C 51.214844 189.785156 51.652344 189.015625 52.199219 187.980469 C 52.601563 187.210938 53.085938 185.660156 54.011719 185.535156 L 49.769531 196.703125 C 53.675781 202.535156 64.390625 210.421875 74.210938 210.421875 L 77.210938 210.421875 C 80.695313 210.421875 85.605469 208.367188 88.074219 207.132813 C 89.710938 206.316406 91.164063 205.609375 92.5625 204.546875 C 93.335938 203.957031 96.09375 201.449219 96.507813 201.632813 C 96.71875 202.109375 92.378906 206.179688 91.449219 206.867188 C 88.851563 208.78125 87.636719 209.367188 84.714844 210.851563 C 80.5 212.992188 71.449219 213.519531 66.308594 211.890625 C 59.054688 209.597656 57.308594 208.84375 51.527344 205.019531 C 48.273438 202.871094 43.261719 197.261719 40.894531 194 C 37.945313 189.9375 34.949219 185.195313 33.019531 180.222656 C 32.074219 177.789063 30.910156 175.339844 29.964844 172.558594 C 28.992188 169.703125 28.425781 167.007813 27.558594 164.03125 C 26.523438 160.464844 25.113281 149.207031 25.117188 144.820313 C 25.117188 140.917969 25.117188 138.285156 25.117188 134.527344 C 25.117188 132.855469 24.582031 130.203125 25.964844 130.003906 C 26.472656 129.929688 30.339844 129.75 30.476563 129.8125 C 30.859375 130.585938 30.476563 129.296875 30.476563 130.457031 L 30.480469 135.902344 L 53.414063 134.742188 L 53.414063 135.386719 C 50.097656 135.386719 44.699219 136.160156 41.578125 136.628906 C 39.929688 136.871094 30.261719 137.191406 30.261719 138.390625 L 30.261719 143.960938 C 30.261719 149.53125 30.617188 153.574219 31.53125 158.128906 C 31.996094 160.449219 34.738281 169.429688 34.582031 170.367188 L 35.402344 169.699219 L 36.683594 169.953125 L 36.835938 169.78125 L 36.25 169.089844 L 36.015625 169.296875 Z M 34.296875 170.421875 C 34.101563 171.324219 33.582031 172.355469 34.335938 172.90625 L 34.335938 171.617188 C 34.507813 171.738281 34.863281 172.046875 34.976563 172.046875 C 35.328125 172.046875 35.621094 171.917969 35.621094 171.617188 C 35.621094 171.128906 35.546875 171.367188 35.363281 170.867188 Z M 48.109375 155.136719 L 47.71875 156.007813 Z M 49.984375 157.253906 C 50.203125 157.039063 49.683594 156.476563 49.867188 157.003906 C 49.867188 157.003906 49.878906 157.035156 49.878906 157.039063 C 49.886719 157.054688 49.929688 157.3125 49.984375 157.253906 Z M 68.207031 172.691406 C 68.476563 172.132813 68.851563 170.550781 68.851563 169.6875 L 68.875 168.90625 L 69.914063 168.441406 L 70.78125 168.617188 C 70.238281 169.746094 69.636719 172.535156 68.207031 172.691406 Z M 60.058594 173.761719 C 60.175781 172.695313 61.988281 171.65625 61.988281 169.472656 L 62.007813 168.898438 L 63.707031 168.617188 C 64.554688 170.417969 61.449219 173.027344 60.058594 173.761719 Z M 41.882813 163.730469 L 42.742188 163.730469 L 43.242188 167.136719 L 42.050781 167.117188 C 41.777344 165.941406 41.851563 164.929688 41.882813 163.730469 Z M 61.132813 185.769531 L 59.203125 185.769531 C 55.597656 185.769531 54.832031 185.65625 51.730469 184.453125 C 50.359375 183.917969 46.46875 181.945313 46.339844 180.40625 C 47.191406 180.816406 52.667969 182.765625 53.628906 182.765625 C 54.699219 182.765625 56.441406 179.921875 56.648438 178.28125 C 56.847656 176.714844 58.171875 173.921875 59.632813 173.761719 C 58.71875 175.664063 59.886719 175.835938 58.085938 178.648438 C 57.441406 179.648438 56.046875 182.226563 55.773438 183.410156 L 57.488281 183.410156 C 58.8125 183.410156 61.90625 177.78125 62.292969 177.496094 C 63.316406 176.75 64.242188 176.507813 65.597656 175.4375 C 66.253906 174.917969 67.914063 173.199219 68.636719 173.117188 C 67.167969 175.894531 66.765625 176.351563 64.054688 177.96875 C 63.554688 178.269531 62.65625 180.011719 62.113281 180.746094 C 61.390625 181.726563 60.324219 182.695313 59.847656 183.410156 C 65.136719 183.410156 69.644531 182.503906 72.886719 180.371094 C 75.699219 178.515625 79.152344 174.816406 80 171.191406 C 79.410156 171.617188 77.886719 174.070313 77.25 174.875 C 76.273438 176.117188 75.160156 177.183594 73.9375 178.207031 C 71.632813 180.128906 68.203125 181.910156 64.777344 181.910156 L 62.847656 181.910156 C 62.027344 181.910156 62.769531 181.84375 62.203125 182.121094 C 62.320313 181.054688 64.773438 179.785156 65.585938 179.070313 C 66.402344 178.351563 67.585938 176.46875 68.472656 175.53125 C 69.292969 174.664063 70.371094 172.675781 70.695313 171.316406 C 71.347656 168.570313 72.496094 169.007813 73.566406 167.542969 C 74.429688 167.960938 75.578125 167.578125 76.066406 167.835938 C 76.46875 168.042969 75.925781 169.136719 75.925781 170.117188 C 77.894531 168.800781 75.976563 167.542969 78.539063 166.945313 C 79.507813 166.71875 82.375 166.011719 82.988281 165.511719 L 77.53125 166.023438 L 78.070313 163.042969 C 79.429688 163.695313 82.847656 163.769531 83.003906 165.640625 L 83.855469 165.613281 C 84.371094 166.703125 82.167969 172.640625 81.570313 173.835938 C 79.898438 177.179688 78.773438 177.375 76.628906 179.824219 C 73.890625 182.957031 66.300781 185.769531 61.132813 185.769531 Z M 75.554688 170.582031 L 75.722656 170.765625 L 75.867188 170.082031 Z M 80.367188 170.722656 L 80.203125 170.542969 L 80.058594 171.226563 Z M 136.167969 164.757813 L 149.03125 165.613281 C 149.382813 166.144531 152.714844 168.476563 153.59375 169.199219 C 154.84375 170.230469 156.730469 172.242188 157.605469 173.546875 C 155.058594 173.546875 153.550781 173.449219 151.335938 173.15625 C 149.808594 172.957031 146.117188 173.679688 145.542969 172.101563 C 144.898438 170.324219 139.027344 165.402344 136.8125 165.402344 L 136.167969 165.402344 Z M 73.125 163.367188 L 73.136719 164.113281 C 73.136719 165.824219 73.085938 165.8125 72.28125 167.332031 C 71.078125 166.753906 70.15625 167.71875 70.574219 166.300781 C 70.792969 165.5625 71.1875 164.570313 71.199219 163.601563 Z M 52.410156 166.445313 C 52.625 167.636719 51.753906 166.789063 50.628906 167.332031 C 50.050781 166.132813 49.984375 165.242188 49.984375 164.113281 L 49.984375 163.257813 L 51.914063 163.257813 L 51.914063 163.902344 C 51.914063 165.144531 52.222656 165.421875 52.410156 166.445313 Z M 48.699219 164.328125 C 48.699219 167.167969 50.839844 167.414063 47.871094 167.609375 C 46.800781 167.683594 46.984375 164.941406 46.984375 163.902344 L 46.984375 163.257813 L 48.699219 163.257813 Z M 74.851563 164.757813 C 73.863281 162.890625 75.382813 164.144531 76.78125 163.472656 L 76.65625 166.480469 L 74.425781 166.472656 Z M 64.644531 162.640625 L 66.242188 163.945313 C 65.6875 165.132813 66.230469 165.308594 64.953125 166.433594 C 64.398438 166.921875 63.625 168.007813 62.992188 167.738281 Z M 46.113281 163.15625 L 46.125 164.113281 C 46.125 165.332031 46.8125 166.996094 46.554688 167.542969 L 44.199219 167.515625 L 43.347656 163.539063 Z M 79.785156 161.542969 C 79.6875 162.71875 79.601563 162.1875 78.710938 162.613281 L 77.855469 161.542969 C 78.03125 161.371094 78.363281 161.113281 78.710938 161.113281 C 79.15625 161.113281 78.628906 161.445313 79.785156 161.542969 Z M 76.996094 161.113281 L 76.996094 162.183594 L 76.535156 162.304688 C 76.179688 162.140625 75.28125 161.285156 75.28125 160.683594 C 75.28125 160.230469 75.359375 160.402344 75.496094 159.828125 L 76.351563 159.828125 C 76.535156 160.167969 76.996094 160.792969 76.996094 161.113281 Z M 74.640625 160.898438 C 74.640625 161.222656 74.21875 161.140625 73.996094 161.96875 C 73.519531 161.84375 73.351563 161.921875 73.351563 161.328125 L 73.351563 161.113281 C 73.351563 160.453125 72.953125 159.535156 74.210938 159.398438 C 74.242188 160.859375 74.640625 160.066406 74.640625 160.898438 Z M 72.066406 162.183594 C 70.636719 161.5 70.371094 162.734375 70.953125 160.648438 C 71.222656 159.675781 71.421875 159.082031 71.421875 157.898438 L 72.667969 159.011719 Z M 136.8125 154.894531 C 139.136719 156.011719 143.75 156.65625 146.894531 157.035156 C 150.453125 157.460938 149.644531 156.789063 149.046875 159.84375 C 148.878906 160.695313 148.371094 164.351563 147.808594 164.4375 C 145.972656 164.722656 139.003906 163.699219 136.367188 163.695313 C 134.238281 163.695313 135.824219 161.828125 136.296875 159.957031 C 136.597656 158.777344 136.8125 156.582031 136.8125 154.894531 Z M 64.347656 161.542969 C 64.613281 160.992188 64.792969 159.164063 65.132813 158.253906 C 65.703125 156.742188 66.417969 157.050781 66.707031 155.96875 L 67.945313 156.699219 L 67.992188 157.253906 C 66.832031 157.566406 66.0625 159.957031 66.0625 161.542969 Z M 162.535156 153.609375 C 162.535156 154.734375 162.511719 154.734375 162.136719 155.996094 C 161.609375 157.761719 162.296875 157.335938 160.621094 157.253906 C 158.691406 157.15625 156.484375 157.242188 154.621094 157.023438 C 153.5625 156.902344 152.953125 156.839844 151.589844 156.835938 C 149.863281 156.832031 150.429688 156.492188 150.75 155.332031 C 151.183594 153.75 150.960938 151.257813 150.960938 149.320313 C 152.824219 150.21875 159.542969 150.824219 161.464844 150.824219 L 162.535156 150.824219 Z M 8.179688 150.394531 L 12.039063 150.394531 L 13.332031 157.511719 L 8.179688 160.683594 Z M 56.386719 134.675781 L 56.414063 139.03125 C 54.140625 139.640625 55.355469 142.796875 56.683594 143.90625 C 58.097656 145.089844 59.683594 145.800781 61.417969 146.679688 C 64.855469 148.414063 69.484375 149.289063 72.496094 150.824219 C 74.191406 151.683594 76.40625 151.984375 77.984375 153.050781 C 79.578125 154.132813 80.992188 154.828125 82.535156 156.003906 C 85.53125 158.285156 88.359375 160.433594 88.359375 164.972656 L 88.359375 165.402344 C 88.359375 166.84375 88.21875 167.433594 87.296875 168.625 C 86.847656 169.207031 84.890625 170.289063 84.5 170.117188 L 84.285156 169.996094 L 85.621094 167.570313 L 84.929688 167.542969 L 85.191406 166.265625 L 86.421875 166.519531 L 86.789063 165.792969 L 86.207031 164.761719 L 85.144531 164.757813 L 85.542969 163.464844 L 84.921875 162.40625 L 83.855469 162.398438 L 81.757813 160.84375 L 82.363281 159.617188 L 81.886719 159.226563 L 80.417969 159.054688 L 79.59375 159.648438 L 78.941406 159.359375 C 79.253906 158.167969 79.785156 159.148438 79.785156 158.113281 C 79.785156 157.292969 78.332031 156.976563 77.640625 156.609375 L 75.917969 157.890625 L 75.296875 157.644531 L 76.089844 156.367188 L 75.457031 154.914063 L 74.640625 154.894531 C 72.144531 154.894531 71.996094 155.929688 70.351563 155.96875 C 70.382813 154.628906 70.394531 153.59375 68.851563 153.179688 L 68.066406 155.050781 L 67.777344 155.109375 L 67.613281 153.761719 L 67.347656 153.824219 L 67.347656 152.964844 C 67.347656 152.183594 66.324219 151.058594 65.421875 151.039063 C 65.476563 151.707031 65.632813 151.796875 65.632813 152.539063 L 65.632813 153.609375 C 65.632813 154.257813 65.382813 154.203125 64.777344 154.253906 C 64.738281 152.589844 62.882813 152.105469 62.417969 150.824219 L 61.132813 150.824219 L 61.714844 152.351563 L 61.777344 153.179688 L 60.082031 152.480469 L 60.5 151.6875 L 59.585938 150.484375 C 59.382813 149.125 59.074219 149.050781 58.09375 148.5 C 56.710938 147.726563 57.460938 147.210938 55.988281 147.179688 L 57.746094 151.125 L 57.457031 151.335938 L 56.191406 150.855469 L 56.203125 148.464844 L 55.730469 148.078125 L 53.609375 147.699219 L 52.601563 148.324219 C 52.445313 147.769531 52.34375 147.757813 52.34375 147.179688 L 52.34375 145.464844 C 51.53125 145.246094 49.988281 144.480469 49.769531 143.535156 L 50.660156 144.132813 C 51.289063 143.828125 52.558594 143.59375 52.558594 142.675781 C 52.558594 142.222656 52.480469 142.394531 52.34375 141.820313 L 51.484375 141.820313 L 52.179688 140.347656 C 51.5625 140.039063 52.304688 140.105469 51.484375 140.105469 L 50.84375 140.105469 L 50.871094 138.816406 L 53.1875 138.335938 C 53.296875 137.222656 54 136.992188 52.988281 136.03125 Z M 83.214844 160.46875 C 83.214844 161.625 83.109375 161.945313 84.285156 161.96875 L 84.285156 161.328125 C 84.285156 160.625 83.851563 160.523438 83.214844 160.46875 Z M 95.886719 150.382813 C 98.03125 148.941406 100.839844 143.558594 102.015625 140.683594 C 102.421875 139.6875 102.714844 138.894531 102.988281 137.796875 C 103.390625 136.1875 102.464844 134.980469 104.207031 134.941406 C 105.621094 134.910156 110.96875 134.894531 111.726563 134.527344 C 111.726563 142.960938 111.726563 151.394531 111.726563 159.828125 C 111.726563 164.042969 111.726563 168.257813 111.726563 172.476563 C 111.726563 174.394531 111.875 177.019531 111.757813 178.28125 C 111.523438 180.859375 110.4375 181.390625 110.011719 182.980469 L 109.476563 182.933594 Z M 151.1875 148.792969 C 148.929688 147.390625 142.144531 144.039063 138.738281 143.960938 L 138.738281 143.320313 C 140.667969 143.769531 143.523438 143.726563 145.6875 144.089844 C 147.949219 144.472656 150.011719 144.617188 152.164063 145.117188 C 154.40625 145.636719 161.921875 148.691406 162.109375 150.394531 Z M 40.550781 148.679688 C 41.351563 147.007813 40.394531 142.730469 40.757813 140.523438 C 40.980469 139.148438 46.828125 140.050781 48.054688 139.460938 L 48.054688 142.890625 C 45.566406 143.472656 41.722656 148.550781 40.550781 148.679688 Z M 39.042969 140.523438 L 39.800781 150.1875 C 37.300781 151.429688 38.320313 149.96875 38.203125 146.957031 C 38.175781 146.328125 37.898438 141.664063 37.804688 141.441406 Z M 114.300781 172.261719 L 113.65625 172.261719 C 113.804688 172 113.871094 172.03125 113.871094 171.617188 L 113.871094 134.527344 L 119.660156 134.527344 L 119.660156 139.460938 C 119.660156 144.78125 118.988281 151.574219 117.960938 156.628906 C 117.390625 159.429688 117.066406 161.964844 116.3125 164.628906 C 115.984375 165.800781 114.3125 171.742188 114.300781 172.261719 Z M 137.882813 142.675781 C 138.410156 141.578125 138.105469 137.273438 138.097656 135.601563 C 138.078125 132.046875 139.355469 133.988281 142.378906 134.320313 C 143.460938 134.4375 147.367188 135.265625 148.425781 135.5625 C 149.976563 135.996094 150.644531 135.289063 150.808594 136.828125 C 150.882813 137.527344 150.960938 138.636719 150.960938 139.460938 C 150.960938 140.757813 150.859375 142.09375 150.558594 143.570313 C 150.246094 145.113281 148.382813 143.726563 147.082031 143.550781 C 143.949219 143.132813 141.074219 142.675781 137.882813 142.675781 Z M 93.71875 146.964844 C 93.71875 147.078125 100.800781 164.246094 101.507813 165.757813 C 102.90625 168.742188 104.164063 172.054688 105.425781 175.132813 C 106.433594 177.601563 108.941406 182.328125 108.941406 184.480469 L 108.941406 186.195313 L 108.402344 186.152344 L 91.789063 146.75 C 92.878906 145.125 94.042969 143.824219 94.9375 141.964844 C 95.207031 141.398438 96.894531 136.496094 96.933594 136.03125 L 98.222656 136.03125 C 97.988281 136.511719 97.777344 138.316406 97.492188 139.160156 C 97.160156 140.132813 96.835938 140.703125 96.417969 141.945313 C 96.113281 142.855469 93.71875 146.828125 93.71875 146.964844 Z M 62.628906 146.109375 C 61.441406 145.648438 60.125 145.132813 58.984375 144.609375 C 57.628906 143.992188 57.042969 143.171875 55.988281 142.460938 L 55.859375 140.949219 C 57.871094 139.425781 57.273438 136.828125 57.273438 134.316406 L 57.273438 133.671875 L 58.132813 133.671875 C 59.304688 133.671875 58.867188 133.0625 58.992188 134.953125 C 59.046875 135.800781 59.203125 136.144531 59.203125 137.316406 L 59.417969 137.316406 C 59.417969 131.976563 59.601563 133.886719 63.917969 133.886719 L 63.917969 139.890625 C 67.574219 139.972656 73.769531 142.925781 75.769531 144.761719 C 77.507813 146.363281 78.414063 147.144531 79.785156 149.105469 C 80.359375 149.917969 82.859375 153.640625 82.570313 154.253906 C 82.195313 154.429688 79.394531 153.085938 78.574219 152.675781 C 77 151.894531 75.652344 151.90625 74.851563 150.394531 L 74.234375 150.855469 C 73.324219 150.207031 71.746094 150.246094 71.15625 149.585938 C 70.488281 148.839844 70.167969 147.773438 69.28125 147.179688 C 69.28125 149.207031 68.035156 148.042969 66.460938 147.421875 C 65.175781 146.914063 63.875 146.59375 62.628906 146.109375 Z M 74.5625 150.457031 L 74.746094 150.308594 L 71.957031 147.269531 Z M 140.027344 132.171875 C 142.351563 133.285156 148.695313 130.886719 150.746094 130.886719 L 153.105469 130.886719 C 153.519531 130.886719 153.484375 130.816406 153.746094 130.671875 C 154.296875 131.421875 159.824219 133.078125 160.820313 132.601563 L 160.820313 133.242188 C 157.402344 133.242188 153.59375 135.445313 150.40625 134.871094 C 147.183594 134.285156 143.058594 133.066406 140.027344 132.8125 Z M 151.816406 122.523438 L 162.929688 125.855469 L 162.964844 132.601563 L 151.816406 129.597656 Z M 52.128906 132.8125 C 50.789063 132.8125 48.152344 132.554688 47.625 131.101563 C 45.417969 131.148438 45.140625 131.113281 43.980469 129.382813 C 45.3125 129.027344 44.582031 128.222656 46.898438 127.585938 C 48.554688 127.125 48.507813 126.8125 50.199219 126.8125 L 50.84375 126.8125 L 50.886719 126.550781 L 59.640625 128.050781 L 58.988281 127.027344 C 59.757813 125.421875 60.332031 125.738281 61.988281 125.738281 C 62.402344 125.738281 62.371094 125.671875 62.632813 125.523438 C 63.066406 126.117188 63.613281 126.097656 63.578125 126.980469 C 63.539063 127.996094 63.117188 128.125 64.296875 128.378906 C 65.148438 128.5625 66.539063 128.636719 67.605469 129.34375 C 68.652344 130.035156 69.3125 130.78125 69.785156 132.09375 C 70.378906 133.730469 69.707031 134.433594 69.707031 136.03125 C 68.429688 136.886719 69.375 136.925781 67.566406 137.746094 C 66.179688 138.378906 65.296875 137.933594 64.347656 138.390625 L 65.707031 136.519531 L 64.765625 136.636719 L 64.777344 134.316406 L 65.207031 134.316406 C 64.570313 133.113281 63.230469 132.808594 61.351563 132.808594 C 60.488281 132.808594 59.507813 132.875 58.730469 132.898438 C 58.136719 132.917969 57.210938 132.503906 56.414063 132.601563 L 53.644531 132.933594 Z M 65.632813 136.246094 C 65.253906 136.625 66.015625 135.863281 65.632813 136.246094 Z M 84.175781 123.742188 C 84.25 123.238281 87.070313 123.066406 87.289063 123.167969 C 87.679688 123.996094 86.722656 126.03125 86.972656 127.328125 C 87.21875 128.597656 87.863281 129.945313 88.359375 130.886719 L 113.441406 128.957031 C 115.929688 127.289063 120.042969 120.34375 122.230469 118.878906 L 131.78125 132.664063 C 131.621094 132.988281 131.449219 132.976563 131.449219 133.457031 L 131.449219 200.988281 L 130.378906 200.988281 L 130.378906 133.457031 C 130.378906 133.179688 122.566406 121.855469 122.019531 121.453125 C 120.023438 122.914063 114.050781 132.246094 112.371094 132.386719 L 111.632813 131.410156 L 112.25 130.527344 L 89.003906 132.613281 C 89.003906 135.386719 87.207031 140.800781 86.214844 142.675781 L 106.554688 189.851563 L 105.84375 191.300781 L 105.296875 191.34375 C 105.183594 189.992188 96.566406 170.457031 95.289063 167.476563 C 93.589844 163.519531 92.03125 159.496094 90.21875 155.609375 C 89.546875 154.179688 85.75 144.175781 84.929688 144.175781 L 84.285156 144.175781 C 82.5 144.175781 80.460938 147.179688 79.785156 147.179688 C 79.582031 147.179688 78.0625 144.917969 77.855469 144.605469 C 81.28125 142.308594 84.5 133.632813 84.5 127.671875 C 84.5 126.703125 84.078125 124.398438 84.175781 123.742188 Z M 0.675781 139.675781 L 0.675781 146.320313 L 0.890625 147.394531 C 1.464844 147.699219 5.179688 149.472656 5.179688 149.964844 L 5.179688 161.96875 C 5.179688 162.75 2.867188 166.335938 2.390625 166.6875 C 2.539063 166.949219 2.605469 166.917969 2.605469 167.332031 C 2.605469 170.023438 5.605469 174.152344 5.605469 175.046875 L 5.605469 204.417969 C 5.605469 205.167969 3.488281 205.703125 2.769531 206.300781 C 2.3125 206.679688 1.167969 208.355469 0.675781 208.921875 L 0.675781 212.136719 C 0.953125 212.210938 3.820313 214.445313 5.109375 214.992188 C 7.230469 215.894531 8.464844 216.210938 10.753906 216.210938 L 17.828125 216.210938 C 19.800781 216.210938 20.535156 215.902344 22.503906 215.3125 C 23.539063 215.003906 26.378906 213.210938 26.402344 213.210938 L 33.476563 213.210938 C 33.234375 216.136719 31.976563 218.777344 31.976563 222.214844 L 31.996094 224.972656 L 37.75 228.667969 L 47.839844 228 L 48.484375 228 L 48.484375 229.714844 C 48.484375 231.433594 48 231.578125 48.316406 233.089844 C 48.542969 234.164063 48.484375 235.667969 48.484375 236.792969 C 56.550781 241.058594 55.507813 238.71875 65.421875 238.71875 C 65.597656 239.484375 66.152344 241.367188 66.542969 241.882813 C 67.886719 243.640625 67.871094 242.828125 69.066406 243.867188 L 75.710938 243.867188 L 85.347656 242.585938 L 86 243.867188 L 93.074219 243.867188 C 93.953125 243.257813 100.300781 242.429688 101.890625 242.175781 C 103.4375 241.925781 105.488281 242.164063 105.523438 240.660156 C 105.5625 238.890625 105.9375 237.566406 105.9375 235.71875 C 106.949219 235.957031 107.25 236.511719 108.289063 236.582031 C 109.234375 236.652344 110.527344 236.578125 111.511719 236.578125 C 113.160156 236.578125 116.5625 236.230469 117.664063 236.710938 L 125.449219 230.359375 C 129.597656 230.359375 129.875 229.949219 132.863281 228.769531 C 134.136719 228.269531 134.683594 227.789063 135.734375 227.140625 C 137.207031 226.234375 137.238281 225.996094 137.238281 224.355469 L 137.238281 222.855469 C 137.238281 221.78125 137.320313 222.40625 136.953125 221.082031 L 140.882813 216.425781 C 140.382813 215.382813 140.277344 211.515625 139.601563 209.777344 C 139.140625 208.597656 137.671875 204.917969 137.453125 203.988281 L 147.316406 203.988281 C 148.132813 203.988281 150.949219 200.421875 151.390625 199.703125 C 152.964844 197.132813 152.160156 196.269531 151.105469 193.769531 C 149.328125 189.550781 146.5625 187.195313 144.261719 183.820313 L 145.171875 181.480469 L 156.964844 181.480469 C 157.996094 179.527344 158.890625 176.425781 158.890625 174.191406 C 158.890625 173.371094 158.824219 174.113281 159.105469 173.546875 C 158.171875 172.921875 155.5 169.527344 154.554688 168.453125 C 153.539063 167.300781 150.46875 165.089844 148.972656 164.3125 L 150.53125 158.328125 L 161.679688 158.328125 C 163.003906 158.328125 162.171875 158.921875 162.625 157.34375 C 162.867188 156.503906 163 156.640625 163.269531 155.410156 C 163.546875 154.140625 163.609375 152.855469 163.609375 151.679688 L 163.609375 149.964844 C 162.859375 149.789063 159.3125 147.285156 158.167969 146.617188 C 156.230469 145.488281 153.71875 145.089844 151.800781 144.175781 L 152.03125 140.746094 L 152.152344 138.585938 L 151.835938 136.109375 L 164.035156 133.457031 L 164.035156 124.667969 L 151.410156 121.164063 L 151.386719 115.234375 L 151.507813 115.460938 L 162.769531 109.484375 L 162.75 100.65625 C 161.550781 100.378906 160.625 99.566406 159.605469 99.085938 C 158.621094 98.617188 157.3125 98.277344 156.320313 97.871094 C 154.191406 97 151.890625 96.078125 149.460938 95.511719 L 149.460938 94.226563 C 151.105469 93.785156 153.878906 90.773438 155.085938 89.5625 C 156.027344 88.617188 156.746094 88 157.664063 86.992188 C 158.316406 86.273438 159.351563 84.597656 159.964844 84.148438 C 159.261719 82.6875 159.242188 80.121094 158.25 78.144531 C 156.96875 75.589844 156.851563 75.929688 154.179688 74.714844 C 152.097656 73.769531 145.515625 70.910156 143.027344 70.855469 L 143.027344 70 L 155.433594 67.09375 L 155.460938 58.210938 L 148.632813 54.503906 L 148.601563 7.828125 L 137.882813 0.539063 L 136.8125 0.539063 C 135.699219 1.503906 127.378906 3.328125 127.378906 4.398438 L 127.378906 14.261719 L 115.957031 8.363281 L 106.621094 11.375 L 106.582031 59.710938 L 93.523438 62.785156 L 93.503906 54.992188 C 95.175781 54.992188 100.070313 53.796875 101.261719 52.886719 C 103.453125 51.207031 105.296875 50.324219 105.296875 47.0625 L 105.296875 25.835938 C 105.296875 25.421875 105.363281 25.453125 105.511719 25.191406 C 105.140625 24.945313 103.1875 23.109375 102.5625 22.566406 C 101.574219 21.714844 100.390625 20.921875 99.285156 20.269531 C 97.207031 19.035156 94.257813 17.046875 91.789063 17.046875 L 91.574219 17.046875 C 87.765625 17.046875 78.703125 21.835938 74.425781 22.191406 L 74.425781 32.695313 L 72.527344 31.769531 L 72.496094 16.832031 L 49.585938 5.628906 L 49.554688 4.613281 L 40.59375 8.152344 L 40.550781 26.480469 L 49.132813 23.277344 L 49.246094 23.726563 C 49.453125 23.210938 49.554688 23.199219 49.554688 22.621094 L 49.554688 6.96875 L 54.449219 9.191406 L 54.488281 26.480469 L 49.5625 24.109375 L 40.59375 27.449219 L 40.550781 47.0625 L 48.894531 44.640625 L 48.914063 45.132813 L 40.585938 48.015625 L 40.550781 66.996094 L 48.898438 65.414063 L 48.914063 66.140625 L 40.578125 68.167969 L 40.550781 86.9375 L 48.898438 85.15625 L 48.914063 85.863281 L 40.570313 87.453125 L 40.550781 106.875 L 48.914063 105.8125 L 38.652344 111.222656 L 38.621094 108.375 L 31.347656 109.546875 L 31.332031 114.59375 C 31.332031 115.328125 29.738281 115.800781 29.1875 116.09375 L 29.1875 109.660156 L 22.769531 110.621094 L 22.757813 119.523438 L 21.066406 120.21875 L 21.042969 110.734375 L 14.410156 111.894531 L 14.398438 123.808594 L 13.75 124.011719 L 13.773438 106.660156 L 13.753906 84.578125 L 13.808594 83.507813 L 13.753906 70.644531 C 13.753906 70.230469 13.820313 70.261719 13.96875 70 L 13.324219 70 C 13.230469 71.113281 11.742188 74.433594 11.265625 75.660156 C 10.269531 78.226563 9.65625 78.707031 11.21875 81.109375 C 12.691406 83.367188 13.542969 82.601563 13.539063 86.507813 C 13.535156 89.007813 13.539063 91.511719 13.539063 94.011719 C 12.003906 92.984375 11.691406 92.082031 9.679688 92.082031 L 9.25 92.082031 L 5.824219 92.515625 C 3.992188 95.96875 3.890625 95.691406 3.890625 100.441406 C 5.019531 102.128906 6.714844 103.105469 8.355469 104.339844 C 8.976563 104.804688 13.324219 107.21875 13.324219 107.515625 C 13.324219 107.898438 11.863281 111.730469 11.824219 113.519531 L 11.179688 113.519531 C 8.894531 113.519531 6.507813 113.898438 3.722656 114.421875 C 1.699219 114.804688 2.019531 115.132813 1.566406 117 C 1.324219 118.007813 1.320313 119.398438 1.320313 120.378906 L 1.320313 122.953125 C 2.574219 123.285156 6.492188 126.207031 8.609375 126.382813 L 0.675781 131.101563 L 0.675781 131.742188 L 10.75 131.25 L 10.753906 133.027344 L 13.597656 129.867188 L 4.738281 130.796875 C 4.871094 129.761719 6.90625 129.269531 7.824219 128.8125 C 9.050781 128.199219 10.023438 127.714844 11.253906 127.101563 C 13.550781 125.953125 15.769531 124.730469 18.039063 123.597656 C 22.21875 121.507813 27.59375 119.039063 31.542969 116.730469 C 35.648438 114.335938 40.699219 112.03125 45.054688 109.875 C 47.574219 108.628906 48.941406 107.285156 52.347656 106.878906 C 55.292969 106.53125 58.289063 105.929688 61.140625 105.59375 C 63.046875 105.371094 68.792969 104.257813 69.914063 104.507813 C 72.695313 105.121094 75.636719 105.84375 78.332031 106.394531 C 83.859375 107.53125 89.609375 108.746094 95.003906 110.089844 C 100.398438 111.433594 106.148438 112.648438 111.679688 113.78125 C 115.140625 114.492188 125.546875 117.378906 128.449219 117.378906 L 128.449219 118.023438 L 14.179688 129.808594 L 21.824219 138.03125 C 21.621094 138.523438 21.683594 137.78125 21.683594 138.601563 L 21.683594 188.125 L 20.183594 188.125 L 20.183594 138.816406 C 20.183594 138.253906 14.484375 132.230469 13.753906 131.742188 C 12.988281 132.882813 7.535156 138.882813 7.535156 139.460938 L 7.535156 148.464844 L 6.035156 148.464844 L 6.035156 139.03125 C 6.035156 138.617188 5.96875 138.648438 5.820313 138.390625 L 10.769531 133.046875 C 9.980469 133.210938 6.164063 135.511719 5.390625 136.03125 C 3.5625 137.257813 2.421875 138.503906 0.675781 139.675781 Z M 138.097656 116.519531 L 137.664063 111.390625 L 150.242188 115.464844 L 150.316406 115.234375 L 150.316406 121.882813 C 149.003906 121.25 145.679688 120.59375 143.671875 120.59375 L 138.097656 120.59375 L 138.097656 118.878906 L 138.042969 117.808594 Z M 139.382813 110.734375 C 141.644531 110.546875 149.675781 106.535156 150.101563 104.945313 L 160.554688 108.941406 L 160.605469 109.445313 C 160.523438 109.46875 156.628906 111.867188 155.890625 112.234375 C 154.96875 112.695313 151.179688 114.214844 150.746094 114.59375 L 139.417969 111.257813 Z M 107.34375 77.550781 L 110.226563 77.503906 C 110.28125 78.175781 112.84375 84.898438 113.292969 86.011719 C 114.445313 88.863281 115.179688 91.695313 116.097656 94.785156 C 116.757813 97.015625 120.085938 112.566406 119.230469 114.378906 L 119.183594 114.597656 L 99.75 110.390625 C 99.074219 109.289063 97.3125 105.703125 96.113281 105.386719 Z M 60.539063 96.40625 L 63.25 97.304688 L 63.277344 104.730469 L 59.003906 105.265625 C 58.832031 104.828125 59.761719 101.71875 59.632813 100.871094 L 59.292969 98.53125 C 59.414063 98.484375 59.207031 98.089844 59.28125 98.140625 Z M 65.847656 95.726563 L 66.492188 95.726563 L 69.679688 103.671875 L 68.207031 103.65625 C 68.015625 101.34375 65.847656 99.222656 65.847656 97.011719 Z M 150.316406 101.941406 L 149.671875 97.226563 C 151.390625 96.417969 159.855469 100.953125 161.464844 101.085938 L 161.464844 108.160156 L 150.355469 103.980469 L 150.316406 103.445313 L 150.261719 102.371094 Z M 57.488281 97.65625 C 57.488281 97.242188 57.421875 97.273438 57.273438 97.011719 L 57.460938 96.824219 L 58.972656 98.3125 C 58.808594 98.640625 58.34375 99.265625 58.34375 99.585938 C 58.34375 100.550781 58.773438 101.011719 58.773438 102.371094 L 58.773438 103.015625 L 58.53125 105.152344 L 57.488281 105.160156 Z M 56.203125 97.011719 C 51.53125 93.765625 60.375 90.589844 63.796875 93.0625 C 65.855469 94.550781 65.734375 97.054688 62.203125 96.15625 C 59.890625 95.566406 57.902344 95.875 56.203125 97.011719 Z M 135.738281 99.15625 C 135.738281 96.921875 134.417969 90.652344 134.453125 90.578125 C 135.742188 89.972656 145.761719 94.9375 147.53125 95.082031 L 147.53125 95.726563 C 144.640625 95.726563 137.726563 98.105469 135.738281 99.15625 Z M 57.148438 88.210938 L 63.0625 88.222656 L 62.5625 91.429688 L 57.554688 91.429688 Z M 134.882813 89.078125 C 136.125 88.746094 140.035156 85.867188 141.042969 84.953125 C 143.078125 83.105469 144.265625 81.953125 145.601563 79.433594 C 147.085938 80.144531 150.453125 80.976563 152.332031 81.703125 C 154.703125 82.625 156.175781 83.695313 158.25 84.792969 C 155.851563 88.371094 151.414063 91.191406 148.171875 94.011719 L 134.921875 89.605469 Z M 67.777344 85.648438 C 68.4375 85.210938 88.539063 80.882813 89.464844 81.003906 C 90.207031 81.101563 86.648438 88.855469 86.148438 90.085938 C 84.925781 93.113281 83.710938 96.550781 82.355469 99.371094 C 78.410156 98.449219 77.527344 98.511719 73.566406 98.511719 Z M 146.035156 78.351563 C 146.027344 76.664063 144.472656 72.699219 144.527344 72.570313 C 145.472656 72.128906 152.257813 75.3125 153.660156 75.871094 C 155.636719 76.664063 156.144531 77.109375 157.101563 78.863281 C 157.664063 79.890625 159.082031 82.195313 158.464844 83.507813 Z M 128.019531 71.285156 C 129.699219 68.78125 130.851563 67.191406 133.378906 65.496094 C 134.402344 66.386719 136.417969 66.445313 137.796875 67.296875 C 138.96875 68.023438 140.621094 68.980469 141.742188 69.570313 L 139.789063 72.773438 C 137.542969 72.835938 132.542969 76.769531 130.808594 77.933594 Z M 63.917969 29.050781 L 74.582031 34.523438 L 74.640625 68.5 L 63.917969 70.855469 Z M 52.128906 81.148438 C 54.144531 81.101563 62.566406 78.859375 65.082031 78.226563 C 68.496094 77.367188 73.78125 76.351563 77.65625 75.589844 C 86.253906 73.894531 94.734375 71.683594 103.351563 69.984375 C 111.902344 68.300781 120.546875 66.238281 129.222656 64.339844 C 131.621094 63.816406 140.277344 61.539063 141.996094 61.535156 C 142.855469 61.535156 150.632813 65.878906 152.675781 66.355469 L 152.675781 66.996094 L 142.367188 69.289063 C 141.507813 68.15625 135.304688 65.28125 133.164063 65.28125 C 131.289063 65.28125 122.984375 67.59375 120.386719 68.15625 C 116.867188 68.921875 110.871094 70.804688 107.652344 71.070313 L 109.085938 75.523438 L 108.890625 75.703125 L 107.882813 75.320313 L 93.40625 108.332031 L 92.21875 108.375 C 93.578125 105.804688 106.582031 74.65625 106.582031 73.644531 L 106.582031 71.929688 L 101.871094 72.414063 L 87.605469 106.828125 L 86.214844 106.875 L 100.105469 72.769531 L 92.660156 74.152344 C 92.394531 75.148438 91.789063 76.339844 91.359375 77.289063 C 90.816406 78.496094 90.867188 79.652344 89.488281 79.917969 C 87.257813 80.347656 84.335938 80.980469 82.097656 81.53125 C 79.117188 82.261719 69.488281 83.871094 67.5625 84.792969 L 66.214844 80.523438 L 64.988281 80.710938 L 73.640625 99.765625 L 74.851563 99.800781 L 80.652344 100.347656 L 80.640625 101.730469 L 73.578125 100.585938 L 72.496094 100.65625 L 63.828125 81.1875 L 60.710938 81.828125 C 61.207031 82.835938 61.816406 84.113281 62.234375 85.191406 C 63.363281 88.105469 63.375 86.390625 61.347656 87.363281 L 58.996094 82.214844 L 52.347656 83.113281 L 54.707031 93.203125 C 54.003906 93.484375 53.84375 94.730469 53.84375 95.941406 C 53.84375 97.054688 55.214844 98.25 56.203125 98.511719 L 56.203125 106.015625 L 49.332031 106.785156 L 49.339844 105.585938 L 49.769531 105.585938 L 49.523438 105.589844 L 49.269531 66.140625 L 54.445313 68.585938 L 54.488281 73.214844 L 52.136719 73.671875 Z M 49.339844 45.773438 L 54.445313 48.21875 L 54.488281 67.210938 L 49.339844 64.640625 Z M 83.644531 51.5625 C 84.566406 52.003906 85.09375 51.546875 86.152344 52.054688 C 86.832031 52.382813 87.3125 52.644531 88.003906 52.992188 C 88.941406 53.460938 91.089844 54.566406 92.003906 54.777344 L 92.003906 63.140625 L 83.644531 64.855469 Z M 142.171875 52.632813 L 154.125 59.15625 L 154.175781 66.140625 L 142.171875 60.78125 Z M 137.667969 2.683594 L 147.265625 9.613281 L 147.316406 54.5625 C 146.585938 54.175781 142.609375 51.5625 142.171875 51.5625 C 141.695313 51.5625 138.078125 52.652344 137.667969 52.847656 Z M 84.5 49.417969 C 84.929688 49.382813 91.800781 47.371094 92.292969 47.136719 C 94.683594 45.984375 95.605469 43.855469 95.65625 40.421875 C 95.75 33.808594 95.648438 27.101563 95.648438 20.476563 C 97.421875 21.414063 99.457031 21.960938 101.050781 23.222656 C 103 24.769531 103.796875 24.9375 103.796875 28.410156 C 103.792969 33.695313 103.796875 38.984375 103.796875 44.273438 C 103.796875 47.453125 104.25 48.789063 102.039063 50.234375 C 100.078125 51.519531 98.957031 51.972656 96.460938 52.589844 C 89.59375 54.292969 89.429688 51.210938 84.5 50.0625 Z M 49.605469 24.980469 L 54.433594 27.4375 L 54.488281 47.0625 L 49.382813 44.617188 L 49.289063 44.058594 Z M 83.855469 31.195313 L 86.609375 32.554688 L 86.644531 39.128906 C 86.644531 41.140625 85.070313 41.53125 83.855469 42.34375 Z M 116.859375 33.554688 C 118.101563 33.710938 119.109375 37.601563 119.730469 38.839844 C 120.675781 40.726563 121.535156 42.449219 122.445313 44.273438 C 124.257813 47.902344 125.921875 51.644531 127.804688 55.207031 L 116.878906 57.992188 Z M 86.21875 28.414063 L 86.632813 28.65625 L 86.644531 31.195313 L 83.914063 29.992188 L 83.894531 29.554688 Z M 66.707031 15.332031 L 70.953125 17.351563 L 70.992188 31.625 L 66.707031 29.480469 Z M 56.84375 10.402344 L 60.648438 12.429688 L 60.703125 28.195313 L 57.917969 28.402344 L 57.917969 27.980469 L 56.84375 27.765625 Z M 62.203125 12.972656 L 65.152344 14.574219 L 65.207031 28.621094 C 64.738281 28.375 63.570313 27.550781 63.0625 27.550781 C 63.035156 27.550781 62.292969 27.933594 62.203125 27.980469 Z M 122.519531 21.046875 C 121.820313 19.65625 117.679688 12.035156 118.023438 11.320313 L 127.542969 16.285156 L 127.59375 29.910156 C 127.59375 30.324219 127.660156 30.289063 127.804688 30.554688 C 126.511719 30.410156 125.503906 27.019531 124.945313 25.910156 C 124.09375 24.203125 123.371094 22.753906 122.519531 21.046875 " />
    <path style=" stroke:none;fill-rule:evenodd;fill:RGB(255,255,255);fill-opacity:1;" d="M 37.121094 170.976563 C 37.523438 171.734375 37.082031 171.59375 37.9375 171.816406 L 38.195313 171.191406 C 38.019531 171.070313 37.664063 170.761719 37.550781 170.761719 C 37.4375 170.761719 37.144531 170.933594 37.121094 170.976563 " />
    <path style=" stroke:none;fill-rule:evenodd;fill:RGB(255,255,255);fill-opacity:1;" d="M 72.925781 169.277344 L 71.851563 172.476563 C 73.511719 173.257813 73.996094 169.941406 74.414063 169 L 72.925781 169.277344 " />
    <path style=" stroke:none;fill-rule:evenodd;fill:RGB(255,255,255);fill-opacity:1;" d="M 36.90625 175.476563 C 37.777344 175.679688 37.550781 175.535156 37.765625 176.121094 C 38.421875 175.636719 38.109375 176.257813 38.195313 175.261719 L 37.550781 175.261719 L 37.550781 174.621094 L 36.90625 174.621094 L 36.90625 175.476563 " />
  </g>
</svg>