<?xml version="1.0" encoding="UTF-8"?>
<svg xmlns="http://www.w3.org/2000/svg" xmlns:xlink="http://www.w3.org/1999/xlink" width="841.89pt" height="595.28pt" viewBox="0 0 841.89 595.28" version="1.1">
<g id="surface1">
<path style=" stroke:none;fill-rule:evenodd;fill:rgb(46.611023%,14.395142%,30.26123%);fill-opacity:1;" d="M 281.023438 287.910156 L 279.65625 287.75 L 279.628906 287.613281 L 279.738281 287.613281 L 279.75 250.484375 L 268.4375 252.160156 L 268.4375 277.066406 C 262.996094 272.402344 255.101563 271.15625 245.824219 271.851563 L 245.492188 289.640625 C 251.304688 294.328125 256.65625 296.929688 262.488281 298.308594 Z M 481.128906 326.914063 L 481.128906 499.527344 C 478.101563 500.335938 475.3125 501.328125 472.886719 502.464844 C 465.96875 505.765625 461.667969 510.347656 461.667969 515.453125 L 461.667969 515.492188 C 461.667969 520.613281 465.96875 525.199219 472.886719 528.46875 C 479.640625 531.671875 488.957031 533.628906 499.253906 533.640625 L 499.265625 533.640625 C 509.558594 533.628906 518.875 531.671875 525.644531 528.46875 C 532.574219 525.199219 536.863281 520.613281 536.863281 515.492188 L 536.863281 515.453125 C 536.863281 511.058594 533.6875 507.035156 528.378906 503.929688 L 527.921875 314.769531 L 527.921875 314.113281 L 527.800781 313.9375 L 527.574219 313.5625 L 507.441406 282.292969 L 519.316406 281.207031 L 527.800781 280.414063 L 532.027344 280.027344 L 527.910156 278.96875 L 519.679688 276.835938 L 401.765625 246.425781 L 401.507813 246.371094 L 401.40625 246.332031 L 401.269531 246.355469 L 401.042969 246.371094 L 375.402344 248.34375 C 375.65625 248.152344 375.882813 247.964844 376.109375 247.738281 C 377.210938 246.625 377.90625 245.097656 377.90625 243.394531 C 377.90625 241.722656 377.210938 240.175781 376.109375 239.078125 C 375 237.964844 373.46875 237.285156 371.78125 237.285156 C 370.078125 237.285156 368.550781 237.964844 367.449219 239.066406 C 366.351563 240.175781 365.65625 241.722656 365.65625 243.394531 C 365.65625 245.097656 366.335938 246.613281 367.449219 247.738281 C 367.882813 248.179688 368.390625 248.542969 368.953125 248.835938 L 356.621094 249.789063 L 356.3125 249.800781 L 356.136719 249.816406 L 356.015625 249.894531 L 355.75 250.03125 L 261.734375 300.632813 L 255.355469 304.058594 L 252.152344 305.777344 L 255.769531 305.453125 L 262.996094 304.800781 L 273.972656 303.78125 L 259.507813 326.671875 L 259.496094 326.671875 L 259.296875 327.019531 L 259.1875 327.207031 L 259.1875 474.453125 C 258.398438 474.773438 257.660156 475.109375 256.949219 475.457031 C 251.734375 478.058594 248.503906 481.71875 248.503906 485.789063 C 248.503906 489.878906 251.734375 493.539063 256.949219 496.125 C 262.003906 498.660156 268.972656 500.214844 276.667969 500.214844 L 276.695313 500.214844 C 284.375 500.214844 291.34375 498.660156 296.398438 496.125 C 301.609375 493.539063 304.839844 489.878906 304.839844 485.789063 C 304.839844 481.796875 301.757813 478.21875 296.71875 475.632813 L 296.71875 329.972656 L 296.613281 329.785156 L 296.382813 329.40625 L 279.347656 303.296875 L 315.726563 299.917969 L 315.726563 313.230469 L 296.398438 313.792969 C 296.4375 310.789063 296.53125 307.558594 296.652344 303.21875 L 281.71875 304.410156 L 296.53125 327.207031 C 296.398438 322.734375 296.34375 319.460938 296.382813 316.164063 L 338.21875 315.628906 C 339.101563 314.316406 340.457031 313.070313 342.039063 312.464844 L 334.667969 312.679688 L 334.667969 298.191406 L 365.441406 295.363281 L 365.441406 307.851563 C 363.015625 307.453125 360.441406 307.15625 357.707031 306.984375 L 357.652344 306.984375 C 352.453125 306.902344 350.550781 308.390625 348.230469 310.199219 C 347.320313 310.910156 346.3125 311.699219 344.960938 312.410156 C 343.566406 313.136719 342.519531 314.113281 341.890625 315.160156 C 341.351563 316.070313 341.097656 317.050781 341.140625 318 C 341.195313 319.007813 341.59375 319.941406 342.320313 320.722656 L 342.332031 320.722656 C 343.003906 321.457031 343.980469 322.035156 345.253906 322.371094 C 346.503906 322.71875 347.574219 323.1875 348.660156 323.617188 C 351.019531 324.597656 353.390625 325.574219 357.679688 325.75 C 359.261719 325.789063 360.46875 325.601563 361.460938 325.304688 C 357.546875 327.277344 354.636719 329.527344 352.679688 331.941406 C 350.480469 334.714844 349.503906 337.707031 349.597656 340.800781 C 341.542969 345.816406 335.105469 353.453125 331.328125 362.582031 C 330.148438 365.449219 329.238281 368.46875 328.605469 371.589844 C 327.976563 374.714844 327.65625 377.957031 327.65625 381.308594 L 327.65625 381.402344 C 326.046875 382.488281 324.71875 383.734375 323.660156 385.089844 C 321.742188 387.527344 320.710938 390.316406 320.605469 393.195313 C 320.484375 396.078125 321.300781 399.039063 323.070313 401.867188 C 325.980469 406.535156 331.542969 410.851563 339.945313 413.742188 C 340.175781 414 340.417969 414.265625 340.644531 414.507813 C 348.671875 423.019531 359.785156 428.289063 372.046875 428.300781 L 372.0625 428.300781 C 384.3125 428.289063 395.4375 423.019531 403.46875 414.507813 C 409.175781 408.464844 413.320313 400.808594 415.25 392.21875 L 415.25 392.378906 C 418.640625 392.445313 421 391.480469 422.632813 389.417969 C 424.175781 387.515625 424.980469 384.710938 425.371094 380.988281 C 426.132813 373.746094 420.851563 368.144531 413.132813 363.453125 C 409.527344 354.191406 403.210938 346.457031 395.238281 341.269531 C 392.742188 339.648438 390.128906 338.308594 387.371094 337.207031 C 385.949219 336.671875 384.5 336.191406 383.039063 335.800781 C 387.140625 335.144531 389.957031 333.683594 391.484375 331.523438 C 392.730469 329.757813 393.160156 327.730469 392.796875 325.574219 C 392.476563 323.535156 391.40625 321.417969 389.6875 319.382813 C 387.421875 316.699219 383.9375 314.101563 379.3125 311.980469 L 379.3125 294.089844 L 500.980469 282.894531 L 481.4375 315.160156 L 481.222656 315.507813 L 481.128906 315.695313 L 481.128906 322.304688 M 408.226563 86.890625 L 414.980469 90.632813 C 415.035156 85.417969 412.984375 86.007813 408.226563 86.890625 M 414.980469 92.320313 L 407.167969 87.976563 L 407.167969 110.613281 C 411.84375 109.824219 414.324219 109.476563 414.980469 105.214844 Z M 306.035156 486.890625 L 309.359375 487.023438 C 309.628906 486.445313 309.910156 485.898438 310.164063 485.347656 L 301.519531 467.144531 L 298.367188 469.988281 L 298.285156 353.589844 C 306.183594 457.949219 348.902344 508.082031 396.992188 506.390625 C 374.929688 495.160156 356.96875 478.875 342.695313 456.625 L 354.234375 426.773438 C 356.351563 427.726563 359.316406 428.90625 361.460938 429.507813 L 357.652344 439.976563 C 365.65625 455.886719 375.132813 467.335938 384.945313 478.179688 C 376.125 466.972656 366.914063 455.1875 359.542969 439.613281 L 363.390625 429.332031 C 364.582031 429.75 365.777344 430.019531 366.957031 430.097656 L 363.230469 440.070313 C 385.679688 483.59375 412.21875 500.46875 444.777344 478.5 L 415.046875 400.421875 L 417.234375 394.9375 C 420.289063 394.296875 422.621094 392.421875 424.621094 390.019531 L 456.386719 469.15625 C 456.789063 468.621094 457.175781 468.070313 457.566406 467.523438 L 426.425781 388.050781 C 429.925781 377.339844 425.300781 367.234375 414.863281 362.289063 C 413.347656 358.0625 411.324219 354.351563 409.058594 350.882813 C 414.578125 345.265625 417.984375 335.117188 418.800781 326.191406 L 479.238281 322.410156 L 479.199219 327.019531 L 443.839844 329.3125 C 442.742188 341.59375 438.25 353.84375 431.335938 363.15625 L 465.664063 448.222656 C 470.367188 442.1875 474.375 435.246094 478.195313 428.058594 C 478.554688 427.148438 478.890625 426.222656 479.253906 425.285156 L 479.320313 497.546875 C 464.1875 502.453125 457.550781 509.71875 460.167969 518.695313 C 459.65625 519.179688 459.121094 519.675781 458.597656 520.183594 C 461.078125 529.152344 462.671875 538.414063 462.914063 548.117188 L 495.175781 548.386719 C 495.390625 546.335938 495.671875 544.578125 495.527344 542.714844 C 495.351563 540.867188 494.976563 538.882813 494.332031 536.417969 L 495.765625 536.042969 C 496.421875 538.5625 496.800781 540.613281 496.988281 542.597656 C 497.160156 544.566406 496.8125 546.335938 496.585938 548.46875 L 496.515625 548.507813 L 483.796875 556.363281 L 451.253906 556.363281 L 451.292969 556.535156 C 451.894531 559.953125 452.527344 563.359375 451.707031 566.855469 L 451.585938 567.40625 L 451.011719 567.421875 L 421.855469 568.144531 L 421.855469 568.101563 L 406.804688 568.398438 L 406.792969 568.371094 L 381.460938 569.015625 L 381.460938 569.027344 L 366.191406 566.871094 C 365.695313 562.757813 365.414063 558.695313 365.320313 554.714844 L 340.441406 555.746094 L 340.441406 555.773438 L 328.671875 547.648438 C 329.074219 542.472656 329.917969 536.164063 330.886719 530.144531 L 308.675781 529.421875 L 308.648438 529.421875 L 298.996094 518.578125 C 301.300781 509.660156 304.816406 497.304688 308.703125 488.472656 L 305.96875 488.351563 Z M 309.921875 527.769531 L 331.140625 528.683594 C 331.917969 524.074219 332.777344 519.742188 333.605469 516.300781 L 321.234375 503.710938 C 318.714844 510.628906 314.640625 521.230469 309.921875 527.769531 M 341.261719 554.242188 L 365.304688 553.238281 C 365.238281 548.15625 365.535156 543.1875 366.125 538.320313 L 349.238281 530.414063 C 347.652344 537.4375 344.53125 547.703125 341.261719 554.242188 M 381.886719 567.527344 L 406.429688 566.910156 C 404.460938 558.679688 403.386719 551.375 403.507813 543.039063 L 385.613281 541.96875 C 385.304688 550.476563 384.257813 559.015625 381.886719 567.527344 M 422.246094 566.644531 L 450.382813 565.972656 C 450.945313 562.957031 450.382813 559.859375 449.816406 556.804688 L 449.738281 556.363281 L 448.933594 556.363281 L 438.757813 533.574219 L 422.957031 539.632813 C 424.230469 549.96875 423.800781 557.890625 422.246094 566.644531 M 551.339844 478.027344 C 551.070313 476.972656 550.816406 475.992188 550.304688 475.015625 C 549.714844 473.792969 549.058594 472.601563 548.363281 471.421875 C 544.785156 465.375 539.867188 459.746094 534.183594 454.855469 L 534.167969 454.855469 L 530.242188 454.988281 L 530.1875 453.5 L 533.621094 453.40625 L 536.019531 446.597656 C 533.6875 445.433594 531.742188 444.183594 529.960938 442.886719 L 529.949219 415.5 C 534.53125 419.429688 538.660156 424.078125 541.648438 430.179688 L 570.949219 431.117188 C 568.347656 427.1875 565.226563 423.730469 561.804688 420.605469 C 558.132813 417.257813 554.140625 414.308594 550.09375 411.679688 L 530.132813 411.679688 L 530.132813 410.207031 L 549.929688 410.207031 C 550.871094 407.539063 551.621094 404.886719 552.183594 402.203125 C 552.773438 399.417969 553.203125 396.65625 553.511719 393.867188 L 551.621094 393.867188 C 543.1875 392.445313 537.628906 390.367188 530.324219 385.609375 L 529.933594 313.511719 L 510.09375 283.875 L 538.367188 280.390625 L 491.117188 266.890625 C 487.242188 243.246094 481.667969 222.820313 472.230469 197.21875 L 465.664063 198.476563 L 441.628906 254.988281 L 439 254.171875 L 462.148438 199.148438 L 459.5625 199.644531 L 436.535156 253.703125 L 428.828125 251.691406 L 451.265625 201.238281 L 447.886719 201.894531 L 426.320313 250.847656 L 411.722656 247.214844 L 430.410156 205.261719 L 373.335938 216.226563 L 373.175781 216.265625 L 373.027344 216.210938 L 339.304688 208.304688 L 342.050781 207.699219 L 339.289063 208.304688 L 339.289063 187.527344 L 342.386719 186.832031 L 342.386719 91.285156 L 365.910156 82.773438 L 365.910156 82.804688 L 384.769531 93.042969 L 384.769531 75.03125 L 408.871094 65.820313 C 415.398438 63.339844 420.394531 61.960938 423.894531 61.785156 C 426.507813 61.625 428.628906 61.933594 430.25 62.695313 L 430.21875 62.671875 L 449.644531 72.402344 C 452.671875 73.984375 452.5 74.828125 452.566406 77.347656 L 452.644531 122.988281 L 452.644531 123.015625 C 452.472656 129.289063 449.617188 133.484375 444.9375 136.203125 C 440.488281 138.816406 434.429688 140.078125 427.460938 140.640625 L 427.460938 167.542969 L 459.015625 160.410156 L 459.015625 49.132813 L 479 42.417969 L 479.039063 42.429688 L 497.445313 52.457031 L 497.445313 37.511719 L 520.148438 29.253906 L 520.148438 29.269531 L 538.804688 39.429688 L 539.179688 39.65625 L 539.179688 40.085938 L 539.222656 146.1875 L 537.746094 146.1875 L 537.695313 40.527344 L 520.148438 30.957031 L 520.148438 146.566406 L 532.117188 143.84375 L 532.117188 143.859375 L 557.574219 157.582031 L 557.960938 157.808594 L 557.960938 180.757813 L 557.355469 180.851563 L 524.0625 187.246094 C 529.183594 189.445313 533.511719 192.390625 537.210938 195.945313 C 541.460938 200.058594 544.878906 204.992188 547.707031 210.488281 L 577.945313 222.832031 L 581.925781 239.65625 C 581.902344 239.644531 573.121094 249.492188 572.476563 250.054688 C 569.035156 253.058594 565.144531 255.566406 560.683594 257.429688 L 561.980469 263.273438 L 587.140625 271.046875 L 587.945313 288.820313 L 587.972656 288.847656 C 584.824219 291.742188 581.246094 294.117188 576.980469 295.738281 C 572.917969 297.265625 568.269531 298.097656 562.773438 298.015625 L 564.21875 317.71875 L 589.929688 324.449219 L 589.929688 342.636719 L 589.941406 342.675781 C 585.425781 343.402344 580.867188 344.046875 576.3125 344.285156 C 572.0625 344.488281 567.839844 344.324219 563.644531 343.550781 C 563.445313 347.371094 563.214844 351.230469 562.867188 355.089844 C 562.53125 358.910156 562.128906 362.71875 561.566406 366.402344 C 565.789063 367.246094 569.636719 368.640625 573.1875 370.371094 C 577.328125 372.421875 581.214844 374.847656 584.664063 377.554688 L 584.714844 377.621094 L 584.6875 377.757813 L 584.730469 377.796875 L 584.675781 377.835938 L 582.355469 393.867188 L 555 393.867188 C 554.664063 396.761719 554.25 399.632813 553.628906 402.523438 C 553.042969 405.261719 552.304688 407.980469 551.328125 410.71875 C 555.292969 413.316406 559.207031 416.210938 562.796875 419.507813 C 566.566406 422.941406 570.011719 426.773438 572.796875 431.15625 L 572.8125 431.171875 L 567.289063 447.066406 L 537.558594 446.691406 L 535.066406 453.6875 C 540.898438 458.703125 545.964844 464.476563 549.636719 470.671875 C 550.359375 471.890625 551.03125 473.125 551.632813 474.355469 C 552.304688 475.65625 552.761719 477.011719 552.972656 478.148438 L 553.003906 478.148438 L 552.921875 478.300781 L 544.570313 493.082031 L 530.28125 493.042969 L 530.226563 477.46875 Z M 582.074219 377.621094 C 579.113281 375.410156 575.960938 373.386719 572.53125 371.699219 C 568.429688 369.6875 563.914063 368.171875 558.847656 367.449219 L 542.320313 366.429688 C 546.78125 368.558594 550.507813 372.261719 553.980469 377.621094 Z M 536.097656 364.566406 L 558.980469 365.972656 L 559.019531 365.988281 C 559.378906 366.027344 559.757813 366.082031 560.121094 366.132813 C 560.667969 362.476563 561.070313 358.722656 561.378906 354.941406 C 561.726563 351.097656 561.980469 347.167969 562.195313 343.265625 L 534.019531 337.929688 L 531.6875 364.285156 C 533.230469 364.269531 534.71875 364.367188 536.097656 364.566406 M 543.164063 338.160156 L 562.851563 341.898438 L 562.867188 341.898438 C 567.261719 342.8125 571.753906 343.011719 576.230469 342.800781 C 579.609375 342.636719 583.011719 342.234375 586.363281 341.738281 L 559.074219 334.742188 C 554.796875 336.886719 549.460938 338.238281 543.164063 338.160156 M 535.320313 288.832031 L 561.433594 296.5 L 561.980469 296.539063 C 567.636719 296.703125 572.382813 295.898438 576.445313 294.34375 C 580.265625 292.910156 583.496094 290.832031 586.363281 288.3125 L 557.476563 278.566406 C 551.863281 283.808594 545.09375 287.75 535.320313 288.832031 M 561.273438 298 L 535.121094 290.308594 L 535.242188 315.359375 C 543.671875 313.511719 550.882813 313.792969 558.269531 316.152344 L 562.71875 317.316406 Z M 559.917969 256.128906 C 564.3125 254.347656 568.121094 251.890625 571.511719 248.929688 C 574.808594 246.050781 577.71875 242.710938 580.359375 239.039063 L 548.578125 226.816406 C 544.71875 233.757813 536.714844 241.210938 529.128906 244.679688 Z M 560.335938 262.777344 L 559.179688 257.429688 L 528.578125 246.050781 L 531.328125 266.449219 C 538.578125 261.703125 547.855469 259.574219 555.105469 261.15625 Z M 545.5625 209.632813 C 542.988281 204.859375 539.917969 200.625 536.179688 197.03125 C 532.105469 193.089844 527.242188 189.925781 521.367188 187.78125 L 511.074219 189.753906 L 513.902344 198.035156 L 542.199219 209.5625 C 542.734375 209.335938 543.257813 209.082031 543.738281 208.878906 Z M 540.375 210.421875 L 514.542969 199.898438 L 522.039063 221.855469 C 526.503906 217.6875 534.34375 213.328125 540.375 210.421875 M 412.515625 293.402344 L 427.449219 291.957031 C 429.296875 295.671875 431.601563 300.617188 432.070313 305.574219 L 417.433594 306.757813 C 416.832031 302.144531 414.78125 297.828125 412.515625 293.402344 M 487.28125 301.796875 L 439.269531 304.71875 C 438.574219 301.355469 436.628906 295.738281 434.578125 291.367188 L 438.414063 290.925781 C 439.898438 294.53125 441.65625 298.363281 442.230469 301.96875 L 489.238281 299.234375 Z M 429.511719 291.863281 C 431.535156 295.429688 433.746094 302.078125 434.285156 305.136719 L 437.152344 305 C 436.1875 300.308594 434.566406 295.828125 432.285156 291.542969 Z M 485.554688 326.632813 L 485.554688 316.917969 L 504.453125 285.777344 L 523.484375 315.425781 L 523.941406 501.714844 C 517.347656 498.96875 508.714844 497.304688 499.265625 497.304688 L 499.238281 497.304688 C 494.425781 497.304688 489.800781 497.734375 485.554688 498.535156 Z M 487.335938 326.527344 L 496.101563 326.003906 C 496.128906 353.011719 492.992188 377.488281 487.347656 399.484375 L 487.347656 486.753906 C 490.527344 482.238281 493.53125 477.535156 495.832031 472.589844 C 500.429688 479.023438 504.878906 484.664063 509.816406 489.609375 L 487.535156 489.609375 L 487.535156 491.085938 L 510.78125 491.085938 L 514.640625 497.789063 L 515.914063 497.0625 L 513.59375 493 L 521.664063 493.015625 L 521.703125 475.296875 C 517.9375 465.605469 513.191406 458.5 506.796875 451.207031 L 515.441406 429.453125 C 517.425781 431.828125 519.492188 434.066406 521.625 436.101563 L 521.808594 409.722656 C 521.6875 409.65625 521.570313 409.574219 521.421875 409.523438 L 521.625 408.007813 L 521.609375 315.722656 L 504.425781 288.699219 L 495.351563 303.765625 L 495.296875 303.859375 L 487.578125 316.460938 L 487.429688 318.929688 L 496.007813 318.148438 C 496.023438 319.222656 496.035156 320.292969 496.046875 321.378906 L 487.375 321.902344 Z M 341.394531 417.550781 L 331.328125 443.367188 C 328.980469 450.472656 340.054688 454.84375 343.472656 448.40625 L 352.398438 425.5 C 348.175781 423.648438 344.71875 420.636719 341.394531 417.550781 M 322.1875 405.167969 C 324.117188 414.441406 327.816406 425.070313 331.570313 434.398438 L 339.421875 416.238281 L 337.425781 414.898438 C 332.601563 413.878906 326.339844 410.058594 322.1875 405.167969 M 349.15625 333.429688 L 312.65625 333.601563 C 313.167969 351.792969 315.136719 371.308594 318.726563 389.105469 C 319.789063 385.8125 321.757813 382.648438 325.847656 380.207031 C 325.5625 370.503906 328.394531 362.03125 333.300781 354.472656 C 332.695313 348.9375 332.480469 343.292969 333.605469 337.328125 L 344.464844 337.15625 L 344.464844 341.539063 C 345.46875 340.398438 346.714844 339.6875 348.191406 339.417969 C 348.082031 337.425781 348.40625 335.425781 349.15625 333.429688 M 354.046875 327.679688 C 346.207031 327.382813 338.714844 322.71875 337.816406 318.242188 L 310.21875 318.242188 C 302.9375 318.632813 303.140625 330.492188 310.21875 331.324219 L 349.839844 331.324219 C 350.738281 329.636719 352.332031 328.484375 354.046875 327.679688 M 355.078125 312.800781 C 356.058594 312.800781 356.890625 313.28125 356.890625 313.898438 C 356.890625 314.488281 356.058594 314.972656 355.078125 314.972656 C 354.058594 314.972656 353.242188 314.488281 353.242188 313.898438 C 353.242188 313.28125 354.058594 312.800781 355.078125 312.800781 M 402.207031 251.128906 L 381.539063 285.710938 L 432.726563 258.996094 Z M 499.253906 502.933594 L 499.265625 502.933594 C 506.25 502.933594 512.585938 504.113281 517.199219 505.976563 C 520.351563 507.277344 522.707031 508.925781 523.941406 510.804688 L 523.941406 503.320313 C 517.453125 500.496094 508.792969 498.78125 499.265625 498.78125 L 499.238281 498.78125 C 489.199219 498.78125 480.085938 500.707031 473.515625 503.804688 C 467.109375 506.835938 463.140625 510.976563 463.140625 515.453125 L 463.15625 515.453125 L 463.15625 515.492188 L 463.140625 515.492188 C 463.140625 519.984375 467.109375 524.113281 473.503906 527.113281 C 480.085938 530.25 489.199219 532.167969 499.253906 532.167969 L 499.265625 532.167969 C 508.824219 532.167969 517.507813 530.4375 523.996094 527.582031 L 523.957031 516.957031 C 522.722656 518.84375 520.351563 520.519531 517.171875 521.792969 C 512.585938 523.683594 506.261719 524.863281 499.265625 524.863281 L 499.253906 524.863281 C 492.269531 524.863281 485.925781 523.683594 481.34375 521.792969 C 476.53125 519.824219 473.570313 517.050781 473.570313 513.898438 C 473.570313 510.734375 476.53125 507.949219 481.34375 505.976563 C 485.925781 504.113281 492.269531 502.933594 499.238281 502.933594 Z M 525.402344 502.371094 L 525.644531 502.464844 C 526.058594 502.664063 526.488281 502.894531 526.90625 503.097656 L 526.421875 314.769531 L 526.421875 314.558594 L 526.328125 314.367188 L 505.78125 282.453125 L 502.816406 282.707031 L 482.710938 315.910156 L 482.605469 316.085938 L 482.605469 499.152344 C 483.085938 499.035156 483.585938 498.9375 484.078125 498.804688 L 484.078125 316.5 L 484.1875 316.328125 L 503.808594 283.996094 L 504.425781 282.976563 L 505.082031 283.980469 L 524.839844 314.796875 L 524.960938 314.984375 L 524.960938 315.214844 Z M 525.46875 526.914063 C 525.964844 526.675781 526.460938 526.402344 526.957031 526.136719 L 526.90625 504.785156 C 526.421875 504.515625 525.925781 504.261719 525.417969 503.992188 Z M 528.417969 525.265625 C 532.789063 522.515625 535.386719 519.113281 535.386719 515.492188 L 535.386719 515.453125 C 535.386719 511.820313 532.773438 508.414063 528.378906 505.65625 Z M 276.679688 475.804688 C 281.910156 475.804688 286.640625 476.71875 290.085938 478.203125 C 290.890625 478.539063 291.636719 478.914063 292.296875 479.328125 L 292.296875 475.335938 C 287.886719 473.765625 282.484375 472.84375 276.679688 472.84375 L 276.667969 472.84375 C 269.214844 472.84375 262.488281 474.355469 257.605469 476.78125 C 252.914063 479.140625 249.980469 482.320313 249.980469 485.789063 C 249.980469 489.273438 252.914063 492.453125 257.605469 494.796875 C 262.488281 497.238281 269.214844 498.738281 276.667969 498.738281 L 276.695313 498.738281 C 282.484375 498.738281 287.886719 497.8125 292.296875 496.261719 L 292.296875 489.785156 C 291.636719 490.175781 290.890625 490.574219 290.085938 490.910156 C 286.640625 492.398438 281.910156 493.308594 276.695313 493.308594 L 276.667969 493.308594 C 271.4375 493.308594 266.71875 492.398438 263.25 490.910156 C 259.628906 489.355469 257.378906 487.089844 257.378906 484.558594 L 257.378906 484.542969 C 257.378906 482.023438 259.628906 479.757813 263.261719 478.203125 C 266.71875 476.71875 271.4375 475.804688 276.667969 475.804688 Z M 293.757813 480.402344 C 294.386719 480.9375 294.882813 481.515625 295.246094 482.105469 L 295.246094 476.542969 C 294.777344 476.3125 294.292969 476.101563 293.757813 475.886719 Z M 295.246094 487.011719 C 294.882813 487.601563 294.386719 488.164063 293.757813 488.714844 L 293.757813 495.695313 C 294.292969 495.480469 294.777344 495.265625 295.246094 495.054688 Z M 276.679688 477.265625 L 276.667969 477.265625 C 271.65625 477.265625 267.109375 478.148438 263.839844 479.542969 C 260.769531 480.886719 258.839844 482.667969 258.839844 484.542969 L 258.839844 484.558594 C 258.839844 486.445313 260.769531 488.230469 263.839844 489.558594 C 267.109375 490.964844 271.65625 491.847656 276.667969 491.847656 L 276.695313 491.847656 C 281.707031 491.847656 286.238281 490.964844 289.507813 489.558594 C 290.59375 489.089844 291.519531 488.566406 292.296875 488.003906 L 292.296875 481.113281 C 291.519531 480.550781 290.59375 480.027344 289.507813 479.558594 C 286.238281 478.148438 281.707031 477.265625 276.679688 477.265625 M 293.757813 486.570313 C 294.238281 485.9375 294.507813 485.253906 294.507813 484.558594 L 294.492188 484.558594 L 294.492188 484.542969 L 294.507813 484.542969 C 294.507813 483.859375 294.238281 483.175781 293.757813 482.53125 Z M 276.679688 471.367188 L 276.679688 471.382813 C 282.457031 471.382813 287.804688 472.253906 292.296875 473.765625 L 292.296875 331.230469 L 276.800781 306.730469 L 263.636719 328.429688 L 263.636719 472.988281 C 267.527344 471.957031 271.960938 471.382813 276.667969 471.382813 L 276.667969 471.367188 Z M 293.757813 474.304688 C 294.253906 474.507813 294.777344 474.707031 295.246094 474.921875 L 295.246094 330.386719 L 295.136719 330.199219 L 278.007813 303.402344 L 275.460938 303.644531 L 260.785156 327.4375 L 260.664063 327.609375 L 260.664063 473.886719 C 261.160156 473.742188 261.640625 473.566406 262.152344 473.40625 L 262.152344 328.027344 L 262.269531 327.839844 L 276.171875 304.945313 L 276.800781 303.914063 L 277.429688 304.933594 L 293.648438 330.613281 L 293.757813 330.800781 Z M 296.71875 477.292969 L 296.71875 494.289063 C 300.847656 491.996094 303.339844 489.007813 303.367188 485.789063 L 303.339844 485.789063 L 303.367188 485.789063 C 303.339844 482.574219 300.847656 479.597656 296.71875 477.292969 M 406.457031 394.914063 C 403.882813 401.011719 400.503906 405.984375 396.429688 410.058594 C 392.394531 414.148438 387.679688 417.308594 382.398438 419.722656 L 381.792969 418.382813 C 386.902344 416.050781 391.472656 412.980469 395.382813 409.027344 C 399.3125 405.101563 402.609375 400.246094 405.101563 394.335938 Z M 356.058594 367.152344 L 356.058594 367.167969 C 355.792969 367.539063 355.546875 367.996094 355.28125 368.519531 C 355 369.054688 354.730469 369.671875 354.449219 370.355469 C 353.765625 372.125 353.121094 374.28125 352.695313 376.535156 L 408.976563 377.230469 C 403.910156 375.878906 395.464844 373.46875 381.941406 368.613281 L 381.914063 368.589844 C 369.796875 364.257813 360.601563 358.589844 355.203125 352.621094 C 352.183594 349.300781 350.308594 345.839844 349.785156 342.433594 C 342.253906 347.289063 336.246094 354.523438 332.695313 363.144531 C 331.554688 365.90625 330.671875 368.84375 330.054688 371.886719 C 329.519531 374.65625 329.183594 377.539063 329.144531 380.464844 C 330.980469 379.40625 333.109375 378.519531 335.523438 377.847656 C 335.601563 376.710938 335.699219 375.582031 335.832031 374.5 C 336.058594 372.902344 336.355469 371.375 336.742188 369.875 C 337.144531 368.359375 337.628906 366.886719 338.21875 365.492188 L 338.230469 365.503906 L 338.230469 365.464844 L 339.597656 366.027344 L 339.585938 366.066406 C 339.007813 367.421875 338.550781 368.816406 338.175781 370.234375 C 337.800781 371.683594 337.507813 373.171875 337.304688 374.6875 C 337.199219 375.625 337.105469 376.535156 337.039063 377.460938 C 338.230469 377.191406 339.503906 376.976563 340.832031 376.804688 C 341.167969 372.835938 342.011719 369.015625 343.40625 365.25 L 344.785156 365.773438 C 343.457031 369.308594 342.679688 372.917969 342.320313 376.640625 C 343.644531 376.535156 345.054688 376.480469 346.503906 376.480469 C 347.144531 372.675781 348.269531 368.972656 349.8125 364.980469 L 351.207031 365.515625 C 349.71875 369.324219 348.644531 372.878906 348.003906 376.496094 L 351.207031 376.523438 C 351.632813 374.058594 352.332031 371.710938 353.070313 369.808594 C 353.351563 369.109375 353.660156 368.453125 353.941406 367.863281 C 354.25 367.246094 354.542969 366.75 354.835938 366.320313 Z M 352.292969 379.484375 C 352.171875 380.839844 352.144531 382.179688 352.238281 383.480469 L 350.765625 383.558594 C 350.667969 382.21875 350.683594 380.851563 350.789063 379.472656 L 347.601563 379.445313 C 347.28125 382.394531 347.25 385.492188 347.535156 388.894531 L 414.390625 388.894531 C 414.78125 386.429688 414.980469 383.894531 414.980469 381.332031 L 414.980469 381.320313 C 414.980469 380.957031 414.96875 380.609375 414.96875 380.234375 Z M 347.839844 391.855469 C 347.894531 392.324219 347.972656 392.792969 348.027344 393.289063 L 346.570313 393.492188 C 346.488281 392.941406 346.421875 392.390625 346.339844 391.855469 L 346.113281 391.855469 C 345 391.855469 343.980469 391.867188 342.988281 391.925781 C 343.246094 393.425781 343.523438 394.914063 343.835938 396.453125 L 342.398438 396.75 C 342.050781 395.140625 341.769531 393.570313 341.515625 392.03125 C 340.253906 392.140625 339.101563 392.296875 338.070313 392.5 C 338.484375 394.722656 339.007813 396.949219 339.613281 399.121094 L 338.191406 399.511719 C 337.585938 397.324219 337.050781 395.074219 336.636719 392.808594 C 334.839844 393.265625 333.488281 393.855469 332.546875 394.578125 C 331.972656 395.035156 331.570313 395.515625 331.421875 395.996094 C 331.742188 397.03125 332.105469 398.035156 332.507813 399.039063 C 332.585938 399.136719 332.667969 399.226563 332.761719 399.320313 C 335.726563 402.484375 342.695313 405.878906 353.820313 408.464844 C 356.230469 409.015625 357.667969 410.21875 358.242188 411.53125 C 358.539063 412.203125 358.617188 412.875 358.496094 413.53125 L 358.496094 413.542969 C 358.363281 414.214844 358.054688 414.832031 357.558594 415.324219 C 356.566406 416.34375 354.851563 416.960938 352.519531 416.652344 C 348.996094 416.183594 345.777344 415.515625 342.882813 414.683594 C 350.535156 422.21875 360.789063 426.800781 372.046875 426.800781 L 372.0625 426.800781 C 383.898438 426.800781 394.621094 421.734375 402.382813 413.503906 C 407.929688 407.648438 411.953125 400.195313 413.828125 391.855469 Z M 346.046875 388.894531 C 345.777344 385.492188 345.804688 382.394531 346.113281 379.429688 C 344.71875 379.445313 343.390625 379.523438 342.132813 379.644531 C 342.117188 379.859375 342.117188 380.101563 342.105469 380.316406 C 342.050781 383.132813 342.222656 386 342.601563 388.988281 C 343.671875 388.921875 344.824219 388.894531 346.046875 388.894531 M 341.113281 389.09375 C 340.753906 386.082031 340.589844 383.144531 340.628906 380.304688 L 340.644531 379.808594 C 339.332031 379.996094 338.085938 380.234375 336.917969 380.53125 C 336.90625 383.519531 337.132813 386.5625 337.585938 389.578125 C 338.660156 389.375 339.839844 389.214844 341.113281 389.09375 M 336.140625 389.914063 C 335.699219 386.910156 335.429688 383.90625 335.429688 380.957031 C 332.976563 381.710938 330.925781 382.699219 329.195313 383.90625 C 329.355469 386.855469 329.773438 389.726563 330.429688 392.488281 C 330.523438 392.390625 330.644531 392.3125 330.75 392.230469 C 332.011719 391.277344 333.792969 390.460938 336.140625 389.914063 M 366.742188 336.179688 C 364.957031 338.347656 365.976563 340.640625 368.09375 342.515625 C 371.953125 345.894531 380.171875 349.109375 389.113281 352.582031 C 396.566406 355.492188 404.488281 358.589844 411.015625 362.21875 C 407.449219 354.042969 401.644531 347.179688 394.433594 342.503906 C 392.046875 340.933594 389.488281 339.621094 386.820313 338.601563 C 384.152344 337.558594 381.351563 336.804688 378.46875 336.335938 L 378.441406 336.335938 L 377.828125 336.242188 L 377.828125 326.996094 L 367.730469 323.480469 C 367.449219 323.457031 367.167969 323.414063 366.925781 323.414063 L 366.925781 336.148438 Z M 415.800781 389.417969 C 417.917969 389.375 419.378906 388.785156 420.34375 387.566406 C 421.480469 386.148438 422.097656 383.855469 422.433594 380.679688 C 422.945313 375.785156 419.753906 371.617188 414.621094 367.957031 C 415.355469 370.609375 415.90625 373.359375 416.199219 376.1875 C 416.5625 376.347656 416.832031 376.523438 417.03125 376.75 C 418.171875 377.984375 417.636719 378.707031 416.445313 379.808594 C 416.457031 380.316406 416.457031 380.824219 416.457031 381.320313 L 416.457031 381.332031 C 416.457031 384.097656 416.214844 386.804688 415.800781 389.417969 M 412.675781 366.644531 C 405.933594 362.328125 396.632813 358.695313 388.039063 355.355469 C 378.859375 351.765625 370.414063 348.453125 366.152344 344.742188 C 363.378906 342.316406 362.007813 339.660156 363.148438 336.820313 C 359.4375 337.648438 355.871094 338.992188 352.558594 340.789063 C 352.574219 341.109375 352.628906 341.457031 352.667969 341.765625 C 353.070313 344.675781 354.703125 347.664063 357.382813 350.640625 C 362.476563 356.257813 371.246094 361.628906 382.921875 365.8125 L 382.945313 365.8125 C 399.367188 371.710938 408.214844 373.988281 412.609375 375.101563 C 413.414063 375.328125 414.085938 375.488281 414.644531 375.648438 C 414.285156 372.542969 413.613281 369.527344 412.675781 366.644531 M 366.925781 308.121094 C 371.03125 308.898438 374.675781 310.011719 377.828125 311.324219 L 377.828125 294.222656 L 366.925781 295.226563 Z M 379.3125 333.214844 C 384.394531 332.957031 387.625 331.847656 389.070313 329.808594 C 389.851563 328.710938 390.089844 327.4375 389.875 326.058594 C 389.632813 324.542969 388.804688 322.921875 387.421875 321.285156 C 385.613281 319.140625 382.890625 317.035156 379.3125 315.238281 Z M 377.828125 314.515625 C 374.730469 313.136719 371.109375 311.957031 366.925781 311.125 L 366.925781 320.453125 C 367.34375 320.46875 367.828125 320.507813 368.347656 320.574219 L 368.472656 320.613281 L 368.589844 320.65625 L 377.828125 323.871094 Z M 365.441406 310.855469 C 362.976563 310.414063 360.347656 310.105469 357.558594 309.929688 C 353.417969 309.890625 351.902344 311.085938 350.066406 312.507813 C 349.035156 313.324219 347.9375 314.191406 346.3125 315.023438 C 345.429688 315.496094 344.800781 316.070313 344.425781 316.6875 C 344.195313 317.0625 344.089844 317.476563 344.101563 317.851563 C 344.113281 318.148438 344.234375 318.441406 344.492188 318.710938 C 344.8125 319.046875 345.324219 319.34375 346.03125 319.527344 C 347.464844 319.917969 348.644531 320.414063 349.796875 320.898438 C 351.902344 321.753906 354.035156 322.625 357.789063 322.785156 C 360.171875 322.867188 361.484375 322.222656 362.679688 321.632813 C 363.566406 321.191406 364.394531 320.773438 365.441406 320.574219 Z M 365.441406 326.699219 C 360.386719 328.75 357.117188 331.136719 355 333.804688 C 353.660156 335.480469 352.878906 337.261719 352.640625 339.070313 C 356.621094 337.019531 360.910156 335.589844 365.441406 334.863281 Z M 327.804688 385.019531 C 327.105469 385.609375 326.503906 386.253906 325.980469 386.925781 C 324.453125 388.867188 323.644531 391.039063 323.554688 393.304688 C 323.472656 395.609375 324.144531 397.980469 325.578125 400.3125 C 327.617188 403.53125 331.128906 406.613281 336.207031 409.066406 C 334.945313 407.21875 333.792969 405.289063 332.789063 403.265625 C 331.929688 402.621094 331.179688 401.976563 330.605469 401.347656 C 329.101563 399.75 328.378906 398.128906 328.378906 396.574219 C 328.378906 395.570313 328.660156 394.632813 329.238281 393.800781 C 328.5 390.972656 328.015625 388.035156 327.804688 385.019531 M 338.914063 410.230469 C 342.8125 411.789063 347.453125 412.980469 352.910156 413.71875 C 354.222656 413.90625 355.050781 413.652344 355.425781 413.261719 C 355.523438 413.179688 355.578125 413.101563 355.589844 413.035156 L 355.578125 413.035156 C 355.589844 412.941406 355.578125 412.847656 355.546875 412.726563 C 355.292969 412.203125 354.53125 411.652344 353.175781 411.347656 C 345.363281 409.535156 339.421875 407.285156 335.375 404.925781 C 336.433594 406.800781 337.613281 408.570313 338.914063 410.230469 M 367.035156 289.988281 L 367.035156 290.75 L 369.003906 290.589844 Z M 365.546875 290.898438 L 365.546875 289.558594 L 317.925781 275.445313 L 273.425781 299.382813 Z M 367.035156 275.472656 L 367.035156 285.375 L 373.457031 287.28125 Z M 365.546875 284.933594 L 365.546875 272.746094 L 355.882813 255.003906 L 323.472656 272.441406 Z M 377.828125 283.3125 L 377.828125 252.601563 L 366.925781 253.433594 L 366.925781 266.019531 L 377.046875 284.625 Z M 379.3125 252.480469 L 379.3125 280.832031 L 397.074219 251.128906 Z M 365.441406 263.3125 L 365.441406 253.570313 L 360.335938 253.957031 Z M 378.9375 287.199219 L 401.242188 249.894531 L 401.507813 249.425781 L 402.058594 249.546875 L 434.9375 258.042969 L 436.816406 258.515625 L 435.101563 259.410156 L 379.90625 288.230469 L 377.570313 289.449219 Z M 384.5 289.167969 L 506.25 277.949219 L 439.136719 260.632813 Z M 510.605469 279.050781 L 380.921875 290.976563 L 377.183594 291.3125 L 380.507813 289.585938 L 438.707031 259.199219 L 438.933594 259.078125 L 439.230469 259.144531 L 510.710938 277.589844 L 514.828125 278.632813 Z M 374.746094 289.195313 L 321.328125 273.351563 L 319.597656 272.828125 L 321.179688 272.011719 L 355.84375 253.339844 L 356.472656 253.003906 L 356.835938 253.648438 L 375.601563 288.136719 L 376.472656 289.703125 Z M 318.058594 273.929688 L 373.109375 290.242188 L 376.78125 291.355469 L 372.945313 291.714844 L 269.953125 301.191406 L 266.347656 301.515625 L 269.523438 299.785156 L 317.496094 273.984375 L 317.761719 273.847656 Z M 376.351563 286.460938 L 358.511719 253.660156 L 357.960938 252.65625 L 359.101563 252.5625 L 398.386719 249.53125 L 399.820313 249.425781 L 399.070313 250.660156 L 377.636719 286.488281 L 376.980469 287.601563 Z M 262.859375 303.3125 L 519.199219 279.734375 L 523.445313 279.34375 L 519.316406 278.285156 L 401.40625 247.859375 L 401.269531 247.832031 L 401.160156 247.832031 L 356.726563 251.25 L 356.566406 251.265625 L 356.433594 251.34375 L 262.433594 301.914063 L 259.253906 303.65625 Z M 499.265625 504.410156 L 499.265625 504.421875 L 499.238281 504.421875 L 499.238281 504.410156 C 492.457031 504.410156 486.332031 505.535156 481.894531 507.359375 C 477.671875 509.089844 475.058594 511.40625 475.058594 513.898438 C 475.058594 516.390625 477.671875 518.710938 481.894531 520.4375 C 486.332031 522.25 492.457031 523.375 499.253906 523.375 L 499.265625 523.375 C 506.058594 523.375 512.199219 522.25 516.621094 520.4375 C 520.84375 518.710938 523.472656 516.390625 523.472656 513.898438 C 523.472656 511.40625 520.84375 509.089844 516.621094 507.359375 C 512.199219 505.535156 506.058594 504.410156 499.265625 504.410156 M 371.78125 238.757813 C 370.496094 238.757813 369.339844 239.277344 368.496094 240.125 C 367.652344 240.96875 367.144531 242.121094 367.144531 243.394531 C 367.144531 244.679688 367.652344 245.832031 368.496094 246.679688 C 369.339844 247.523438 370.496094 248.042969 371.78125 248.042969 C 373.066406 248.042969 374.234375 247.523438 375.066406 246.679688 L 375.050781 246.679688 C 375.910156 245.832031 376.417969 244.679688 376.417969 243.394531 C 376.417969 242.121094 375.910156 240.96875 375.066406 240.125 C 374.234375 239.277344 373.066406 238.757813 371.78125 238.757813 M 270.730469 304.664063 C 270.621094 307.695313 270.742188 305.992188 270.714844 307.976563 L 272.941406 304.476563 Z M 257.765625 348.855469 C 252.179688 348.84375 250.570313 348.550781 244.992188 347.890625 L 244.980469 330.558594 C 250.917969 327.25 254.09375 325.105469 260.5 322.734375 L 257.753906 326.996094 Z M 290.890625 441.355469 L 287.175781 430.125 L 267.257813 447.601563 L 290.621094 447.84375 L 290.605469 449.332031 L 265.609375 449.0625 L 265.527344 449.105469 L 265.527344 423.007813 L 280.957031 407.300781 L 280.648438 405.835938 L 265.339844 405.835938 L 265.339844 404.347656 L 280.3125 404.347656 L 277.578125 391.9375 C 272.417969 395.554688 270.824219 397.230469 265.234375 399.925781 L 265.195313 375.277344 C 269.765625 371.9375 269.429688 372.367188 274.148438 370.425781 C 273.167969 363.253906 272.378906 355.972656 271.789063 348.601563 C 268.4375 348.789063 268.355469 348.976563 264.992188 348.964844 L 264.980469 328.804688 L 277.042969 309.410156 L 290.890625 331.6875 Z M 257.820313 403.449219 C 254.980469 404.816406 255.714844 404.039063 252.742188 405.191406 L 248.988281 388.265625 C 251.894531 385.113281 253.667969 383.222656 257.835938 380.183594 Z M 498.863281 277.519531 L 492.992188 277.949219 L 492.628906 275.589844 Z M 498.542969 284.398438 L 494.480469 290.628906 C 494.105469 286.621094 494.519531 289.101563 494.011719 285.027344 Z M 497.226563 151.75 L 480.550781 155.519531 L 480.550781 104.089844 Z M 425.972656 167.890625 L 408.707031 171.792969 L 408.707031 132.289063 L 425.972656 141.070313 Z M 384.769531 177.234375 L 366.191406 181.429688 L 365.910156 84.359375 L 365.910156 84.410156 L 384.769531 94.679688 Z M 342.640625 207.578125 L 530.953125 167.703125 L 555.265625 179.753906 L 373.203125 214.75 Z M 532.117188 166.363281 L 532.117188 145.519531 L 556.472656 158.683594 L 556.472656 178.679688 Z M 428.773438 362.808594 L 427.246094 363.078125 L 462.511719 445.902344 L 463.195313 447.066406 Z M 486.542969 304.261719 C 462.863281 306.257813 442.113281 307.265625 418.425781 309.554688 C 418.960938 313.792969 419.417969 318.847656 419.015625 323.132813 L 479.160156 319.222656 L 479.09375 315.894531 Z M 277.710938 469.398438 C 281.320313 460.257813 286.117188 453.675781 291.089844 450.898438 L 290.914063 471.421875 C 286.960938 469.960938 282.566406 469.050781 277.710938 469.398438 M 416.5625 274.210938 L 391.175781 287.28125 L 411.722656 284.839844 Z M 419.863281 272.574219 L 431.546875 266.449219 L 423.976563 283.621094 L 414.671875 284.492188 Z M 426.699219 283.351563 L 435.074219 263.929688 L 438.332031 262.292969 L 431.496094 279.25 C 432.929688 280.109375 433.679688 281.476563 434.269531 282.777344 Z M 429.324219 359.21875 L 425.117188 356.75 C 429.257813 351.28125 434.148438 340.585938 434.96875 331.523438 L 440.074219 331.6875 C 438.453125 342.246094 434.875 351.363281 429.324219 359.21875 M 438.558594 333.386719 L 437.097656 333.066406 C 435.449219 341.363281 432.472656 349.3125 427.488281 356.617188 L 428.933594 357.394531 C 433.53125 350.0625 436.921875 341.339844 438.558594 333.386719 M 381.363281 296.433594 L 407.957031 293.96875 C 419.324219 310.535156 416.269531 338.925781 405.878906 347.71875 C 401 342.222656 395.558594 338.640625 389.957031 335.734375 C 399.070313 330.238281 395.519531 317.707031 381.363281 310.480469 Z M 434.054688 66.382813 L 448.089844 72.964844 C 449.777344 73.742188 451.0625 74.839844 451.039063 77.066406 L 451.226563 122.222656 C 450.945313 132.007813 444.390625 138.027344 426.628906 139.542969 L 410.140625 131.511719 C 423.464844 128.308594 434.84375 125.011719 434.3125 111.582031 Z M 482.132813 45.792969 L 497.347656 86.421875 L 497.347656 54.746094 Z M 422.847656 258.6875 L 408.519531 254.789063 L 397.316406 275.726563 L 421.402344 262.710938 Z M 425.53125 259.558594 L 427.957031 259.921875 L 424.589844 261.4375 Z M 350.871094 298.339844 C 349.90625 300.507813 348.644531 305.214844 348.042969 309.113281 C 352.386719 304.839844 357.183594 304.664063 363.578125 306.070313 L 363.566406 297.023438 Z M 344.757813 298.929688 C 343.351563 303.65625 342.519531 307.640625 342.039063 312.371094 L 345.777344 310.214844 C 346.433594 306.230469 347.25 302.535156 348.539063 298.550781 Z M 268.167969 45.890625 L 279.46875 40.957031 L 279.46875 78.621094 L 268.332031 82.9375 Z M 317.925781 285.066406 L 322.910156 285.066406 L 322.976563 278.566406 L 346.605469 285.242188 L 338.914063 285.226563 L 334.667969 285.226563 L 334.667969 294.476563 L 315.726563 296.234375 L 315.726563 285.226563 L 302.253906 285.226563 L 317.925781 277.265625 Z M 364.867188 247.136719 L 356.808594 245.554688 L 356.808594 248.179688 L 365.253906 247.777344 Z M 356.742188 260.242188 L 356.742188 280.015625 L 363.925781 282.480469 L 363.925781 272.746094 Z M 352.839844 258.140625 L 352.839844 279.0625 L 327.628906 271.851563 Z M 383.9375 82.9375 L 380.667969 81.300781 L 380.734375 87.988281 L 383.910156 89.597656 Z M 390.71875 214.777344 L 380.707031 216.785156 L 380.628906 247.9375 L 390.75 247.253906 Z M 376.914063 217.054688 L 374.367188 217.296875 L 369.984375 216.949219 L 370.050781 235.78125 C 372.8125 235.257813 375.117188 235.847656 376.925781 237.496094 Z M 366.230469 215.984375 L 356.914063 214.09375 L 356.847656 241.679688 L 364.691406 243.273438 C 364.675781 241.25 365.023438 239.441406 366.230469 238.621094 Z M 376.925781 79.316406 L 369.984375 75.886719 L 370.050781 82.601563 L 376.886719 86.074219 Z M 366.335938 74.265625 L 356.808594 69.679688 L 356.847656 83.230469 L 366.230469 80.402344 Z M 366.230469 30.6875 L 356.636719 26.011719 L 356.875 65.257813 L 366.285156 69.773438 Z M 376.925781 36.210938 L 369.984375 32.78125 L 370.160156 71.8125 L 376.996094 74.949219 Z M 390.707031 42.820313 L 380.800781 37.871094 L 380.800781 77.078125 L 384.019531 78.488281 L 384.003906 73.730469 L 390.707031 71.316406 Z M 323.070313 244.507813 L 339.542969 241.921875 L 352.800781 244.5625 L 352.800781 248.71875 L 323.046875 265.230469 Z M 323.070313 200.140625 L 337.855469 196.789063 L 337.871094 210.058594 L 339.597656 209.710938 L 352.8125 213.074219 L 352.855469 240.300781 L 339.828125 237.886719 L 323.046875 240.152344 Z M 323.070313 156.523438 L 339.652344 152.492188 L 339.664063 184.753906 L 337.882813 185.222656 L 337.882813 192.554688 L 323.046875 195.773438 Z M 323.070313 111.179688 L 339.652344 105.199219 L 339.652344 147.8125 L 323.046875 152.371094 Z M 323.070313 68.058594 L 339.542969 62.105469 L 352.800781 68.378906 L 352.839844 84.597656 L 339.652344 89.265625 L 339.652344 100.496094 L 323.046875 106.261719 Z M 323.070313 22.738281 L 339.542969 15.71875 L 352.800781 24.175781 L 352.949219 63.515625 L 339.746094 57.1875 L 323.046875 62.65625 Z M 302.308594 247.105469 L 317.828125 245.003906 L 317.871094 267.628906 L 302.308594 276.476563 Z M 302.308594 204.28125 L 317.828125 201.148438 L 317.828125 240.832031 L 302.375 242.980469 Z M 302.199219 161.523438 L 317.722656 157.839844 L 317.84375 196.898438 L 302.253906 200.101563 Z M 302.308594 117.585938 L 317.722656 112.585938 L 317.84375 153.28125 L 302.253906 157.570313 Z M 302.308594 75.511719 L 317.722656 69.773438 L 317.84375 107.949219 L 302.253906 113 Z M 302.253906 31.464844 L 317.894531 24.925781 L 318.03125 64.574219 L 302.441406 70.191406 Z M 284.75 38.945313 L 297.507813 33.597656 L 297.496094 72.214844 L 284.761719 76.636719 Z M 284.75 82.050781 L 297.507813 77.359375 L 297.496094 114.570313 L 284.761719 118.820313 Z M 284.75 123.175781 L 297.507813 119.007813 L 297.496094 158.5625 L 284.761719 161.644531 Z M 284.75 165.839844 L 297.507813 162.8125 L 297.496094 201.054688 L 284.761719 203.398438 Z M 284.75 207.886719 L 297.507813 205.234375 L 297.496094 243.542969 L 284.640625 245.445313 Z M 284.640625 249.453125 L 297.660156 247.738281 L 297.550781 278.632813 L 284.46875 285.925781 Z M 268.492188 211.183594 L 279.804688 208.867188 L 279.777344 245.984375 L 269.011719 247.441406 L 267.671875 252.441406 C 262.203125 249.144531 256.734375 243.929688 251.265625 236.785156 L 254.953125 218.140625 C 259.441406 219.816406 264.578125 220.234375 268.492188 223.035156 Z M 268.492188 169.96875 L 279.804688 167.207031 L 279.804688 204.605469 L 268.492188 206.949219 L 268.492188 197.351563 L 261.761719 188.320313 L 268.492188 171.601563 Z M 268.492188 128.644531 L 279.804688 124.878906 L 279.804688 162.996094 L 268.492188 165.933594 Z M 268.492188 87.976563 L 279.804688 83.726563 L 279.804688 120.28125 L 268.492188 124.058594 Z M 380.667969 254.28125 L 380.667969 275.109375 L 390.730469 258.472656 L 390.730469 253.378906 Z M 362.023438 254.949219 L 364.234375 259.144531 L 364.234375 254.949219 Z M 399.902344 267.816406 L 394.996094 276.769531 L 385.679688 281.6875 L 394.289063 267.121094 C 394.714844 266.929688 399.40625 267.5625 399.902344 267.816406 M 400.492188 266.542969 L 401.441406 264.761719 C 399.808594 264.292969 398.050781 263.980469 396.203125 263.835938 L 395.050781 265.820313 C 396.871094 265.953125 398.695313 266.195313 400.492188 266.542969 M 402.339844 263.113281 L 404.339844 259.398438 C 402.730469 258.875 401.109375 258.488281 399.5 258.261719 L 397.179688 262.1875 C 398.964844 262.359375 400.695313 262.628906 402.339844 263.113281 M 297.496094 288.21875 L 279.832031 297.359375 L 297.507813 295.710938 Z M 355.578125 287.988281 L 354.167969 290.859375 L 362.800781 290.039063 Z M 349.933594 286.460938 C 349.085938 287.828125 348.429688 289.117188 347.734375 290.898438 L 351.714844 290.804688 L 353.632813 287.429688 Z M 349.933594 286.460938 "/>
</g>
</svg>
